<?xml version="1.0" encoding="UTF-8" standalone="no"?>
<svg
   xmlns:dc="http://purl.org/dc/elements/1.1/"
   xmlns:cc="http://creativecommons.org/ns#"
   xmlns:rdf="http://www.w3.org/1999/02/22-rdf-syntax-ns#"
   xmlns:svg="http://www.w3.org/2000/svg"
   xmlns="http://www.w3.org/2000/svg"
   xmlns:sodipodi="http://sodipodi.sourceforge.net/DTD/sodipodi-0.dtd"
   xmlns:inkscape="http://www.inkscape.org/namespaces/inkscape"
   width="70mm"
   height="50mm"
   viewBox="0 0 70 50.000001"
   version="1.1"
   id="svg237"
   sodipodi:docname="5.svg"
   inkscape:version="1.0.1 (3bc2e813f5, 2020-09-07)"
   inkscape:export-filename="C:\Users\slazowy\OneDrive - Szkola Glowna Sluzby Pozarniczej\SGSP\inkscape_zadania\svg\k5_laczone\5.png"
   inkscape:export-xdpi="300"
   inkscape:export-ydpi="300">
  <defs
     id="defs231" />
  <sodipodi:namedview
     id="base"
     pagecolor="#ffffff"
     bordercolor="#666666"
     borderopacity="1.0"
     inkscape:pageopacity="0.0"
     inkscape:pageshadow="2"
     inkscape:zoom="2.8"
     inkscape:cx="52.147098"
     inkscape:cy="45.519325"
     inkscape:document-units="mm"
     inkscape:current-layer="layer1"
     showgrid="false"
     fit-margin-top="0"
     fit-margin-left="0"
     fit-margin-right="0"
     fit-margin-bottom="0"
     inkscape:window-width="1920"
     inkscape:window-height="1001"
     inkscape:window-x="-9"
     inkscape:window-y="1304"
     inkscape:window-maximized="1"
     inkscape:pagecheckerboard="0"
     inkscape:document-rotation="0" />
  <metadata
     id="metadata234">
    <rdf:RDF>
      <cc:Work
         rdf:about="">
        <dc:format>image/svg+xml</dc:format>
        <dc:type
           rdf:resource="http://purl.org/dc/dcmitype/StillImage" />
      </cc:Work>
    </rdf:RDF>
  </metadata>
  <g
     inkscape:label="Layer 1"
     inkscape:groupmode="layer"
     id="layer1"
     transform="translate(-30.730976,-127.60526)">
    <rect
       style="fill:#ffffff;stroke-width:1;paint-order:markers stroke fill;stop-color:#000000;fill-opacity:1"
       id="rect149"
       width="72.854912"
       height="50.837803"
       x="29.786036"
       y="126.56583" />
    <circle
       r="10.93996"
       cy="164.31012"
       cx="72.642052"
       id="path53589"
       style="fill:#2e3436;stroke:none;stroke-width:0.560853;stroke-miterlimit:4;stroke-dasharray:none;stroke-opacity:1;paint-order:fill markers stroke" />
    <path
       id="rect14"
       style="fill:#888a85;stroke-width:1;paint-order:markers stroke fill;stop-color:#000000"
       d="m 33.691357,134.60046 v 31.07407 h 1.031978 l 0.318844,-1.8588 -1.350305,-1.3162 1.866036,-0.2713 0.835091,-1.69137 0.834574,1.69137 1.866553,0.2713 -1.350822,1.3162 0.318843,1.8588 h 10.9337 l 0.318843,-1.8588 -1.350305,-1.3162 1.866553,-0.2713 0.834574,-1.69137 0.834575,1.69137 1.866552,0.2713 -1.350822,1.3162 0.318844,1.8588 h 10.934215 l 0.318844,-1.8588 -1.350822,-1.3162 1.866554,-0.2713 0.834575,-1.69137 0.834572,1.69137 1.866554,0.2713 -1.350304,1.3162 0.318841,1.8588 h 10.9337 l 0.318844,-1.8588 -1.350306,-1.3162 1.866037,-0.2713 0.835092,-1.69137 0.834575,1.69137 1.86655,0.2713 -1.350822,1.3162 0.318844,1.8588 h 10.9337 l 0.318844,-1.8588 -1.350306,-1.3162 1.866553,-0.2713 0.834575,-1.69137 0.834576,1.69137 1.86655,0.2713 v -6.48436 l -1.350822,1.31672 0.318844,1.8588 -1.669148,-0.87747 -1.669666,0.87747 0.318844,-1.8588 -1.350306,-1.31672 1.866553,-0.2713 0.834575,-1.69085 0.834576,1.69085 1.86655,0.2713 v -6.48384 l -1.350822,1.3162 0.318844,1.8588 -1.669148,-0.87746 -1.669666,0.87746 0.318844,-1.8588 -1.350306,-1.3162 1.866553,-0.2713 0.834575,-1.69137 0.834576,1.69137 1.86655,0.2713 v -6.48436 l -1.350822,1.31672 0.318844,1.8588 -1.669148,-0.87747 -1.669666,0.87747 0.318844,-1.8588 -1.350306,-1.31672 1.866553,-0.2713 0.834575,-1.69085 0.834576,1.69085 1.86655,0.2713 v -6.48384 l -1.350822,1.3162 0.318844,1.8588 -1.669148,-0.87746 -1.669666,0.87746 0.318844,-1.8588 -1.350306,-1.3162 1.866553,-0.2713 0.834575,-1.69137 H 79.211059 l 0.834575,1.69137 1.86655,0.2713 -1.350822,1.3162 0.318844,1.8588 -1.669147,-0.87746 -1.669667,0.87746 0.318844,-1.8588 -1.350306,-1.3162 1.866037,-0.2713 0.835092,-1.69137 h -14.27303 l 0.834572,1.69137 1.866554,0.2713 -1.350304,1.3162 0.318841,1.8588 -1.669663,-0.87746 -1.669151,0.87746 0.318844,-1.8588 -1.350822,-1.3162 1.866554,-0.2713 0.834575,-1.69137 H 50.665514 l 0.834575,1.69137 1.866552,0.2713 -1.350822,1.3162 0.318844,1.8588 -1.669149,-0.87746 -1.669665,0.87746 0.318843,-1.8588 -1.350305,-1.3162 1.866553,-0.2713 0.834574,-1.69137 H 36.393001 l 0.834574,1.69137 1.866553,0.2713 -1.350822,1.3162 0.318843,1.8588 -1.669148,-0.87746 -1.669666,0.87746 0.318844,-1.8588 -1.350305,-1.3162 1.866036,-0.2713 0.835091,-1.69137 z m 59.792215,0 0.834576,1.69137 1.86655,0.2713 v -1.96267 z m 2.701126,27.89907 -1.350822,1.3162 0.318844,1.8588 h 1.031978 z m -1.031978,3.175 -1.669148,-0.87746 -1.669666,0.87746 z m -14.272514,0 -1.669147,-0.87746 -1.669667,0.87746 z m -14.272514,0 -1.669663,-0.87746 -1.669151,0.87746 z m -14.273029,0 -1.669149,-0.87746 -1.669665,0.87746 z m -14.272514,0 -1.669148,-0.87746 -1.669666,0.87746 z m -1.669148,-24.58971 0.834574,1.69085 1.866553,0.2713 -1.350822,1.31672 0.318843,1.8588 -1.669148,-0.87747 -1.669666,0.87747 0.318844,-1.8588 -1.350305,-1.31672 1.866036,-0.2713 z m 14.272513,0 0.834575,1.69085 1.866552,0.2713 -1.350822,1.31672 0.318844,1.8588 -1.669149,-0.87747 -1.669665,0.87747 0.318843,-1.8588 -1.350305,-1.31672 1.866553,-0.2713 z m 14.272515,0 0.834572,1.69085 1.866554,0.2713 -1.350304,1.31672 0.318841,1.8588 -1.669663,-0.87747 -1.669151,0.87747 0.318844,-1.8588 -1.350822,-1.31672 1.866554,-0.2713 z m 14.27303,0 0.834575,1.69085 1.86655,0.2713 -1.350822,1.31672 0.318844,1.8588 -1.669147,-0.87747 -1.669667,0.87747 0.318844,-1.8588 -1.350306,-1.31672 1.866037,-0.2713 z m -42.818058,6.48384 0.834574,1.69137 1.866553,0.2713 -1.350822,1.3162 0.318843,1.8588 -1.669148,-0.87746 -1.669666,0.87746 0.318844,-1.8588 -1.350305,-1.3162 1.866036,-0.2713 z m 14.272513,0 0.834575,1.69137 1.866552,0.2713 -1.350822,1.3162 0.318844,1.8588 -1.669149,-0.87746 -1.669665,0.87746 0.318843,-1.8588 -1.350305,-1.3162 1.866553,-0.2713 z m 14.272515,0 0.834572,1.69137 1.866554,0.2713 -1.350304,1.3162 0.318841,1.8588 -1.669663,-0.87746 -1.669151,0.87746 0.318844,-1.8588 -1.350822,-1.3162 1.866554,-0.2713 z m 14.27303,0 0.834575,1.69137 1.86655,0.2713 -1.350822,1.3162 0.318844,1.8588 -1.669147,-0.87746 -1.669667,0.87746 0.318844,-1.8588 -1.350306,-1.3162 1.866037,-0.2713 z m -42.818058,6.48436 0.834574,1.69085 1.866553,0.2713 -1.350822,1.31672 0.318843,1.8588 -1.669148,-0.87747 -1.669666,0.87747 0.318844,-1.8588 -1.350305,-1.31672 1.866036,-0.2713 z m 14.272513,0 0.834575,1.69085 1.866552,0.2713 -1.350822,1.31672 0.318844,1.8588 -1.669149,-0.87747 -1.669665,0.87747 0.318843,-1.8588 -1.350305,-1.31672 1.866553,-0.2713 z m 14.272515,0 0.834572,1.69085 1.866554,0.2713 -1.350304,1.31672 0.318841,1.8588 -1.669663,-0.87747 -1.669151,0.87747 0.318844,-1.8588 -1.350822,-1.31672 1.866554,-0.2713 z m 14.27303,0 0.834575,1.69085 1.86655,0.2713 -1.350822,1.31672 0.318844,1.8588 -1.669147,-0.87747 -1.669667,0.87747 0.318844,-1.8588 -1.350306,-1.31672 1.866037,-0.2713 z" />
  </g>
</svg>
