<?xml version="1.0" encoding="UTF-8" standalone="no"?>
<svg
   xmlns:dc="http://purl.org/dc/elements/1.1/"
   xmlns:cc="http://creativecommons.org/ns#"
   xmlns:rdf="http://www.w3.org/1999/02/22-rdf-syntax-ns#"
   xmlns:svg="http://www.w3.org/2000/svg"
   xmlns="http://www.w3.org/2000/svg"
   xmlns:sodipodi="http://sodipodi.sourceforge.net/DTD/sodipodi-0.dtd"
   xmlns:inkscape="http://www.inkscape.org/namespaces/inkscape"
   width="70mm"
   height="50mm"
   viewBox="0 0 70 50.000001"
   version="1.1"
   id="svg237"
   sodipodi:docname="roz6.svg"
   inkscape:version="1.0.1 (3bc2e813f5, 2020-09-07)">
  <defs
     id="defs231" />
  <sodipodi:namedview
     id="base"
     pagecolor="#ffffff"
     bordercolor="#666666"
     borderopacity="1.0"
     inkscape:pageopacity="0.0"
     inkscape:pageshadow="2"
     inkscape:zoom="1.4"
     inkscape:cx="62.857143"
     inkscape:cy="62.857143"
     inkscape:document-units="mm"
     inkscape:current-layer="layer1"
     showgrid="false"
     fit-margin-top="0"
     fit-margin-left="0"
     fit-margin-right="0"
     fit-margin-bottom="0"
     inkscape:window-width="1920"
     inkscape:window-height="1001"
     inkscape:window-x="-9"
     inkscape:window-y="1304"
     inkscape:window-maximized="1"
     inkscape:pagecheckerboard="0"
     inkscape:document-rotation="0" />
  <metadata
     id="metadata234">
    <rdf:RDF>
      <cc:Work
         rdf:about="">
        <dc:format>image/svg+xml</dc:format>
        <dc:type
           rdf:resource="http://purl.org/dc/dcmitype/StillImage" />
      </cc:Work>
    </rdf:RDF>
  </metadata>
  <g
     inkscape:label="Layer 1"
     inkscape:groupmode="layer"
     id="layer1"
     transform="translate(-30.730976,-127.60526)">
    <rect
       style="fill:#ffffff;stroke-width:1;paint-order:markers stroke fill;stop-color:#000000"
       id="rect8"
       width="76.351196"
       height="53.672619"
       x="29.975023"
       y="127.03829" />
    <path
       id="path42909"
       style="opacity:0.6;fill:#000000;stroke-width:0.257878;paint-order:fill markers stroke"
       d="m 60.093482,129.40006 -8.21e-4,6.3543 a 17.780304,17.780304 0 0 0 -3.152381,1.39976 l -1.884669,-1.86348 0.819717,2.52287 a 17.780304,17.780304 0 0 0 -2.665881,2.18568 l -5.679177,-2.85374 3.733981,5.14082 a 17.780304,17.780304 0 0 0 -1.719635,2.98656 l -2.627375,-0.40082 2.148737,1.56164 a 17.780304,17.780304 0 0 0 -0.881026,3.33474 l -6.265492,1.02799 6.036783,1.96248 a 17.780304,17.780304 0 0 0 0.369397,3.42905 l -2.360179,1.21977 H 48.6235 a 17.780304,17.780304 0 0 0 1.247275,3.21369 l -4.466459,4.51678 6.044624,-1.96327 a 17.780304,17.780304 0 0 0 2.304365,2.56372 l -1.190698,2.36961 2.143261,-1.55695 a 17.780304,17.780304 0 0 0 2.905601,1.85952 l -0.958841,6.28122 3.730834,-5.13374 a 17.780304,17.780304 0 0 0 3.376377,0.70498 l 0.430705,2.62425 0.822084,-2.52915 a 17.780304,17.780304 0 0 0 0.718358,0.0276 17.780304,17.780304 0 0 0 2.725605,-0.21301 l 2.911898,5.63753 8.02e-4,-6.35352 a 17.780304,17.780304 0 0 0 3.1524,-1.40054 l 1.88467,1.86346 -0.818935,-2.52285 a 17.780304,17.780304 0 0 0 2.665098,-2.1857 l 5.679178,2.85374 -3.733199,-5.14003 a 17.780304,17.780304 0 0 0 1.718852,-2.98813 l 2.627375,0.40162 -2.148737,-1.56166 a 17.780304,17.780304 0 0 0 0.881809,-3.33472 l 6.26469,-1.02801 -6.032832,-1.96092 a 17.780304,17.780304 0 0 0 -0.364684,-3.43532 l 2.352317,-1.21506 H 82.84868 a 17.780304,17.780304 0 0 0 -1.250423,-3.21919 l 4.460181,-4.5105 -6.033634,1.95936 a 17.780304,17.780304 0 0 0 -2.314573,-2.56452 l 1.189134,-2.36566 -2.140895,1.55536 a 17.780304,17.780304 0 0 0 -2.906403,-1.86738 l 0.957276,-6.27177 -3.729268,5.13137 a 17.780304,17.780304 0 0 0 -3.379526,-0.71441 l -0.428339,-2.61245 -0.818153,2.51814 a 17.780304,17.780304 0 0 0 -0.723071,-0.0156 17.780304,17.780304 0 0 0 -2.725625,0.21299 z" />
  </g>
</svg>
