<?xml version="1.0" encoding="UTF-8" standalone="no"?>
<svg
   xmlns:dc="http://purl.org/dc/elements/1.1/"
   xmlns:cc="http://creativecommons.org/ns#"
   xmlns:rdf="http://www.w3.org/1999/02/22-rdf-syntax-ns#"
   xmlns:svg="http://www.w3.org/2000/svg"
   xmlns="http://www.w3.org/2000/svg"
   xmlns:sodipodi="http://sodipodi.sourceforge.net/DTD/sodipodi-0.dtd"
   xmlns:inkscape="http://www.inkscape.org/namespaces/inkscape"
   width="70mm"
   height="50mm"
   viewBox="0 0 70 50.000001"
   version="1.1"
   id="svg237"
   sodipodi:docname="1.svg"
   inkscape:version="1.0.1 (3bc2e813f5, 2020-09-07)"
   inkscape:export-filename="C:\Users\slazowy\OneDrive - Szkola Glowna Sluzby Pozarniczej\SGSP\inkscape_zadania\svg\k3_logiczne\1.png"
   inkscape:export-xdpi="300"
   inkscape:export-ydpi="300">
  <defs
     id="defs231" />
  <sodipodi:namedview
     id="base"
     pagecolor="#ffffff"
     bordercolor="#666666"
     borderopacity="1.0"
     inkscape:pageopacity="0.0"
     inkscape:pageshadow="2"
     inkscape:zoom="1.4"
     inkscape:cx="-68.060113"
     inkscape:cy="44.538365"
     inkscape:document-units="mm"
     inkscape:current-layer="layer1"
     showgrid="false"
     fit-margin-top="0"
     fit-margin-left="0"
     fit-margin-right="0"
     fit-margin-bottom="0"
     inkscape:window-width="1920"
     inkscape:window-height="1001"
     inkscape:window-x="-9"
     inkscape:window-y="1304"
     inkscape:window-maximized="1"
     inkscape:pagecheckerboard="0"
     inkscape:document-rotation="0" />
  <metadata
     id="metadata234">
    <rdf:RDF>
      <cc:Work
         rdf:about="">
        <dc:format>image/svg+xml</dc:format>
        <dc:type
           rdf:resource="http://purl.org/dc/dcmitype/StillImage" />
        <dc:title />
      </cc:Work>
    </rdf:RDF>
  </metadata>
  <g
     inkscape:label="Layer 1"
     inkscape:groupmode="layer"
     id="layer1"
     transform="translate(-30.730976,-127.60526)">
    <rect
       style="opacity:1;fill:#ffffff;stroke:none;stroke-width:0.25;stop-color:#000000;fill-opacity:1"
       id="rect15"
       width="70.303566"
       height="49.703869"
       x="30.541988"
       y="127.79425" />
    <path
       id="rect16"
       style="font-variation-settings:normal;vector-effect:none;fill:#999999;fill-opacity:1;stroke:none;stroke-width:2.04574;stroke-linecap:butt;stroke-linejoin:miter;stroke-miterlimit:4;stroke-dasharray:none;stroke-dashoffset:0;stroke-opacity:1;paint-order:markers stroke fill;stop-color:#000000"
       d="m 43.723197,152.0272 h 5.089196 l -3.349805,-5.80243 -1.739391,-3.01222 z" />
    <path
       id="path57"
       style="font-variation-settings:normal;vector-effect:none;fill:#999999;fill-opacity:1;stroke:none;stroke-width:2.04574;stroke-linecap:butt;stroke-linejoin:miter;stroke-miterlimit:4;stroke-dasharray:none;stroke-dashoffset:0;stroke-opacity:1;paint-order:markers stroke fill;stop-color:#000000"
       d="m 81.53142,173.1437 v -3.47947 h -8.763199 v 3.47947 z" />
    <path
       id="path55"
       style="font-variation-settings:normal;vector-effect:none;fill:#999999;fill-opacity:1;stroke:none;stroke-width:2.04574;stroke-linecap:butt;stroke-linejoin:miter;stroke-miterlimit:4;stroke-dasharray:none;stroke-dashoffset:0;stroke-opacity:1;paint-order:markers stroke fill;stop-color:#000000"
       d="m 77.460931,133.70821 h -27.6322 v 12.96719 l 1.73939,3.01222 3.349806,5.80243 h -5.089196 v 9.14801 h 22.55287 v -3.47948 h 8.763198 v 3.47948 h 3.222243 v -21.40831 a 7.9901592,6.9591716 0 0 1 -0.09162,-0.005 7.9901592,6.9591716 0 0 1 -0.147297,-0.0106 7.9901592,6.9591716 0 0 1 -0.146594,-0.0134 7.9901592,6.9591716 0 0 1 -0.14589,-0.0155 7.9901592,6.9591716 0 0 1 -0.146593,-0.0183 7.9901592,6.9591716 0 0 1 -0.145183,-0.0204 7.9901592,6.9591716 0 0 1 -0.145183,-0.0225 7.9901592,6.9591716 0 0 1 -0.144479,-0.0254 7.9901592,6.9591716 0 0 1 -0.144483,-0.0268 7.9901592,6.9591716 0 0 1 -0.143068,-0.0296 7.9901592,6.9591716 0 0 1 -0.143068,-0.0324 7.9901592,6.9591716 0 0 1 -0.142368,-0.0338 7.9901592,6.9591716 0 0 1 -0.140954,-0.0367 7.9901592,6.9591716 0 0 1 -0.140954,-0.0388 7.9901592,6.9591716 0 0 1 -0.139546,-0.0409 7.9901592,6.9591716 0 0 1 -0.138843,-0.0437 7.9901592,6.9591716 0 0 1 -0.137431,-0.0451 7.9901592,6.9591716 0 0 1 -0.137432,-0.0479 7.9901592,6.9591716 0 0 1 -0.135317,-0.05 7.9901592,6.9591716 0 0 1 -0.135318,-0.0522 7.9901592,6.9591716 0 0 1 -0.133202,-0.0543 7.9901592,6.9591716 0 0 1 -0.132499,-0.0564 7.9901592,6.9591716 0 0 1 -0.131792,-0.0585 7.9901592,6.9591716 0 0 1 -0.129681,-0.0606 7.9901592,6.9591716 0 0 1 -0.128973,-0.0627 7.9901592,6.9591716 0 0 1 -0.126859,-0.0641 7.9901592,6.9591716 0 0 1 -0.126156,-0.0669 7.9901592,6.9591716 0 0 1 -0.124744,-0.0691 7.9901592,6.9591716 0 0 1 -0.122634,-0.0705 7.9901592,6.9591716 0 0 1 -0.121926,-0.0726 7.9901592,6.9591716 0 0 1 -0.119811,-0.0747 7.9901592,6.9591716 0 0 1 -0.118401,-0.0768 7.9901592,6.9591716 0 0 1 -0.116994,-0.0782 7.9901592,6.9591716 0 0 1 -0.114879,-0.0804 7.9901592,6.9591716 0 0 1 -0.113468,-0.0825 7.9901592,6.9591716 0 0 1 -0.111357,-0.0839 7.9901592,6.9591716 0 0 1 -0.109946,-0.086 7.9901592,6.9591716 0 0 1 -0.107828,-0.0874 7.9901592,6.9591716 0 0 1 -0.105717,-0.0888 7.9901592,6.9591716 0 0 1 -0.104306,-0.0909 7.9901592,6.9591716 0 0 1 -0.102195,-0.093 7.9901592,6.9591716 0 0 1 -0.100077,-0.0937 7.9901592,6.9591716 0 0 1 -0.09797,-0.0958 7.9901592,6.9591716 0 0 1 -0.09655,-0.0973 7.9901592,6.9591716 0 0 1 -0.09374,-0.0994 7.9901592,6.9591716 0 0 1 -0.09233,-0.10008 7.9901592,6.9591716 0 0 1 -0.08951,-0.10219 7.9901592,6.9591716 0 0 1 -0.0881,-0.1029 7.9901592,6.9591716 0 0 1 -0.08528,-0.10501 7.9901592,6.9591716 0 0 1 -0.08316,-0.10572 7.9901592,6.9591716 0 0 1 -0.08105,-0.10712 7.9901592,6.9591716 0 0 1 -0.07894,-0.10924 7.9901592,6.9591716 0 0 1 -0.07612,-0.10924 7.9901592,6.9591716 0 0 1 -0.074,-0.11136 7.9901592,6.9591716 0 0 1 -0.07189,-0.11206 7.9901592,6.9591716 0 0 1 -0.06907,-0.11347 7.9901592,6.9591716 0 0 1 -0.06696,-0.11487 7.9901592,6.9591716 0 0 1 -0.06413,-0.11488 7.9901592,6.9591716 0 0 1 -0.06202,-0.117 7.9901592,6.9591716 0 0 1 -0.0592,-0.11769 7.9901592,6.9591716 0 0 1 -0.05709,-0.11841 7.9901592,6.9591716 0 0 1 -0.05427,-0.1191 7.9901592,6.9591716 0 0 1 -0.05215,-0.12052 7.9901592,6.9591716 0 0 1 -0.04933,-0.12052 7.9901592,6.9591716 0 0 1 -0.04651,-0.12192 7.9901592,6.9591716 0 0 1 -0.0444,-0.12264 7.9901592,6.9591716 0 0 1 -0.04158,-0.12333 7.9901592,6.9591716 0 0 1 -0.03947,-0.12334 7.9901592,6.9591716 0 0 1 -0.03594,-0.12474 7.9901592,6.9591716 0 0 1 -0.03381,-0.12475 7.9901592,6.9591716 0 0 1 -0.031,-0.12615 7.9901592,6.9591716 0 0 1 -0.02818,-0.12545 7.9901592,6.9591716 0 0 1 -0.02609,-0.12686 7.9901592,6.9591716 0 0 1 -0.02255,-0.12686 7.9901592,6.9591716 0 0 1 -0.02042,-0.12686 7.9901592,6.9591716 0 0 1 -0.01761,-0.12757 7.9901592,6.9591716 0 0 1 -0.01479,-0.12756 7.9901592,6.9591716 0 0 1 -0.0127,-0.12827 7.9901592,6.9591716 0 0 1 -0.0092,-0.12827 7.9901592,6.9591716 0 0 1 -0.007,-0.12827 7.9901592,6.9591716 0 0 1 -0.0042,-0.12827 7.9901592,6.9591716 0 0 1 -0.0014,-0.12827 7.9901592,6.9591716 0 0 1 0.0014,-0.12827 7.9901592,6.9591716 0 0 1 0.0042,-0.12827 7.9901592,6.9591716 0 0 1 0.007,-0.12827 7.9901592,6.9591716 0 0 1 0.0092,-0.12827 7.9901592,6.9591716 0 0 1 0.0127,-0.12827 7.9901592,6.9591716 0 0 1 0.01479,-0.12756 7.9901592,6.9591716 0 0 1 0.01761,-0.12757 7.9901592,6.9591716 0 0 1 0.02042,-0.12686 7.9901592,6.9591716 0 0 1 0.02255,-0.12686 7.9901592,6.9591716 0 0 1 0.02609,-0.12686 7.9901592,6.9591716 0 0 1 0.02818,-0.12615 7.9901592,6.9591716 0 0 1 0.031,-0.12545 7.9901592,6.9591716 0 0 1 0.03381,-0.12475 7.9901592,6.9591716 0 0 1 0.03665,-0.12474 7.9901592,6.9591716 0 0 1 0.03876,-0.12334 7.9901592,6.9591716 0 0 1 0.04158,-0.12334 7.9901592,6.9591716 0 0 1 0.0444,-0.12263 7.9901592,6.9591716 0 0 1 0.04651,-0.12192 7.9901592,6.9591716 0 0 1 0.04933,-0.12122 7.9901592,6.9591716 0 0 1 0.05215,-0.11982 7.9901592,6.9591716 0 0 1 0.0303,-0.0669 z" />
    <path
       id="path53"
       style="font-variation-settings:normal;vector-effect:none;fill:#999999;fill-opacity:1;stroke:none;stroke-width:2.04574;stroke-linecap:butt;stroke-linejoin:miter;stroke-miterlimit:4;stroke-dasharray:none;stroke-dashoffset:0;stroke-opacity:1;paint-order:markers stroke fill;stop-color:#000000"
       d="m 80.698976,132.33408 a 7.9901592,6.9591715 0 0 0 -0.0303,0.067 7.9901592,6.9591715 0 0 0 -0.05215,0.11988 7.9901592,6.9591715 0 0 0 -0.04933,0.12124 7.9901592,6.9591715 0 0 0 -0.04651,0.12193 7.9901592,6.9591715 0 0 0 -0.04441,0.12261 7.9901592,6.9591715 0 0 0 -0.04158,0.12329 7.9901592,6.9591715 0 0 0 -0.03876,0.12329 7.9901592,6.9591715 0 0 0 -0.03665,0.12479 7.9901592,6.9591715 0 0 0 -0.03382,0.12479 7.9901592,6.9591715 0 0 0 -0.03101,0.12547 7.9901592,6.9591715 0 0 0 -0.02819,0.12615 7.9901592,6.9591715 0 0 0 -0.02608,0.12684 7.9901592,6.9591715 0 0 0 -0.02256,0.12683 7.9901592,6.9591715 0 0 0 -0.02044,0.12684 7.9901592,6.9591715 0 0 0 -0.01762,0.12752 7.9901592,6.9591715 0 0 0 -0.0148,0.12752 7.9901592,6.9591715 0 0 0 -0.01268,0.12833 7.9901592,6.9591715 0 0 0 -0.0091,0.1282 7.9901592,6.9591715 0 0 0 -0.0071,0.12834 7.9901592,6.9591715 0 0 0 -0.0042,0.12833 7.9901592,6.9591715 0 0 0 -0.0014,0.12834 7.9901592,6.9591715 0 0 0 0.0014,0.12834 7.9901592,6.9591715 0 0 0 0.0042,0.1282 7.9901592,6.9591715 0 0 0 0.0071,0.12833 7.9901592,6.9591715 0 0 0 0.0091,0.12834 7.9901592,6.9591715 0 0 0 0.01268,0.1282 7.9901592,6.9591715 0 0 0 0.0148,0.12752 7.9901592,6.9591715 0 0 0 0.01762,0.12751 7.9901592,6.9591715 0 0 0 0.02044,0.12684 7.9901592,6.9591715 0 0 0 0.02256,0.12684 7.9901592,6.9591715 0 0 0 0.02608,0.12683 7.9901592,6.9591715 0 0 0 0.02819,0.12547 7.9901592,6.9591715 0 0 0 0.03101,0.12616 7.9901592,6.9591715 0 0 0 0.03382,0.12479 7.9901592,6.9591715 0 0 0 0.03594,0.12479 7.9901592,6.9591715 0 0 0 0.03947,0.12329 7.9901592,6.9591715 0 0 0 0.04158,0.12329 7.9901592,6.9591715 0 0 0 0.04441,0.12261 7.9901592,6.9591715 0 0 0 0.04651,0.12192 7.9901592,6.9591715 0 0 0 0.04933,0.12056 7.9901592,6.9591715 0 0 0 0.05215,0.12057 7.9901592,6.9591715 0 0 0 0.05427,0.11906 7.9901592,6.9591715 0 0 0 0.05709,0.11838 7.9901592,6.9591715 0 0 0 0.0592,0.1177 7.9901592,6.9591715 0 0 0 0.06203,0.11701 7.9901592,6.9591715 0 0 0 0.06413,0.11484 7.9901592,6.9591715 0 0 0 0.06695,0.11483 7.9901592,6.9591715 0 0 0 0.06906,0.11347 7.9901592,6.9591715 0 0 0 0.07189,0.11211 7.9901592,6.9591715 0 0 0 0.074,0.11129 7.9901592,6.9591715 0 0 0 0.07612,0.10924 7.9901592,6.9591715 0 0 0 0.07894,0.10924 7.9901592,6.9591715 0 0 0 0.08105,0.1072 7.9901592,6.9591715 0 0 0 0.08317,0.1057 7.9901592,6.9591715 0 0 0 0.08528,0.10501 7.9901592,6.9591715 0 0 0 0.0881,0.10297 7.9901592,6.9591715 0 0 0 0.08951,0.10215 7.9901592,6.9591715 0 0 0 0.09233,0.1001 7.9901592,6.9591715 0 0 0 0.09374,0.0994 7.9901592,6.9591715 0 0 0 0.09656,0.0972 7.9901592,6.9591715 0 0 0 0.09796,0.0959 7.9901592,6.9591715 0 0 0 0.100077,0.0937 7.9901592,6.9591715 0 0 0 0.102192,0.093 7.9901592,6.9591715 0 0 0 0.104306,0.091 7.9901592,6.9591715 0 0 0 0.105723,0.0888 7.9901592,6.9591715 0 0 0 0.107825,0.0874 7.9901592,6.9591715 0 0 0 0.109951,0.0861 7.9901592,6.9591715 0 0 0 0.111357,0.0839 7.9901592,6.9591715 0 0 0 0.11347,0.0825 7.9901592,6.9591715 0 0 0 0.114875,0.0803 7.9901592,6.9591715 0 0 0 0.116989,0.0783 7.9901592,6.9591715 0 0 0 0.118394,0.0768 7.9901592,6.9591715 0 0 0 0.119812,0.0747 7.9901592,6.9591715 0 0 0 0.121927,0.0726 7.9901592,6.9591715 0 0 0 0.122635,0.0705 7.9901592,6.9591715 0 0 0 0.124749,0.069 7.9901592,6.9591715 0 0 0 0.126154,0.067 7.9901592,6.9591715 0 0 0 0.126863,0.0641 7.9901592,6.9591715 0 0 0 0.128978,0.0627 7.9901592,6.9591715 0 0 0 0.129686,0.0606 7.9901592,6.9591715 0 0 0 0.131786,0.0585 7.9901592,6.9591715 0 0 0 0.132496,0.0563 7.9901592,6.9591715 0 0 0 0.133205,0.0543 7.9901592,6.9591715 0 0 0 0.135319,0.0521 7.9901592,6.9591715 0 0 0 0.135319,0.05 7.9901592,6.9591715 0 0 0 0.137433,0.0479 7.9901592,6.9591715 0 0 0 0.137431,0.0451 7.9901592,6.9591715 0 0 0 0.138842,0.0436 7.9901592,6.9591715 0 0 0 0.139547,0.0409 7.9901592,6.9591715 0 0 0 0.140954,0.0387 7.9901592,6.9591715 0 0 0 0.140953,0.0367 7.9901592,6.9591715 0 0 0 0.142369,0.0338 7.9901592,6.9591715 0 0 0 0.143068,0.0325 7.9901592,6.9591715 0 0 0 0.143068,0.0296 7.9901592,6.9591715 0 0 0 0.144483,0.0267 7.9901592,6.9591715 0 0 0 0.144479,0.0254 7.9901592,6.9591715 0 0 0 0.145182,0.0225 7.9901592,6.9591715 0 0 0 0.145183,0.0205 7.9901592,6.9591715 0 0 0 0.146593,0.0183 7.9901592,6.9591715 0 0 0 0.145892,0.0155 7.9901592,6.9591715 0 0 0 0.146592,0.0136 7.9901592,6.9591715 0 0 0 0.147297,0.0109 7.9901592,6.9591715 0 0 0 0.09162,0.005 v -9.52154 z" />
  </g>
</svg>
