<?xml version="1.0" encoding="UTF-8" standalone="no"?>
<svg
   xmlns:dc="http://purl.org/dc/elements/1.1/"
   xmlns:cc="http://creativecommons.org/ns#"
   xmlns:rdf="http://www.w3.org/1999/02/22-rdf-syntax-ns#"
   xmlns:svg="http://www.w3.org/2000/svg"
   xmlns="http://www.w3.org/2000/svg"
   xmlns:sodipodi="http://sodipodi.sourceforge.net/DTD/sodipodi-0.dtd"
   xmlns:inkscape="http://www.inkscape.org/namespaces/inkscape"
   width="70mm"
   height="50mm"
   viewBox="0 0 70 50.000001"
   version="1.1"
   id="svg237"
   sodipodi:docname="2.svg"
   inkscape:version="1.0.1 (3bc2e813f5, 2020-09-07)"
   inkscape:export-filename="C:\Users\slazowy\OneDrive - Szkola Glowna Sluzby Pozarniczej\SGSP\inkscape_zadania\svg\k3_logiczne\2.png"
   inkscape:export-xdpi="300"
   inkscape:export-ydpi="300">
  <defs
     id="defs231" />
  <sodipodi:namedview
     id="base"
     pagecolor="#ffffff"
     bordercolor="#666666"
     borderopacity="1.0"
     inkscape:pageopacity="0.0"
     inkscape:pageshadow="2"
     inkscape:zoom="1.979899"
     inkscape:cx="71.476236"
     inkscape:cy="134.0697"
     inkscape:document-units="mm"
     inkscape:current-layer="layer1"
     showgrid="false"
     fit-margin-top="0"
     fit-margin-left="0"
     fit-margin-right="0"
     fit-margin-bottom="0"
     inkscape:window-width="1920"
     inkscape:window-height="1001"
     inkscape:window-x="-9"
     inkscape:window-y="1304"
     inkscape:window-maximized="1"
     inkscape:pagecheckerboard="0"
     inkscape:document-rotation="0" />
  <metadata
     id="metadata234">
    <rdf:RDF>
      <cc:Work
         rdf:about="">
        <dc:format>image/svg+xml</dc:format>
        <dc:type
           rdf:resource="http://purl.org/dc/dcmitype/StillImage" />
        <dc:title />
      </cc:Work>
    </rdf:RDF>
  </metadata>
  <g
     inkscape:label="Layer 1"
     inkscape:groupmode="layer"
     id="layer1"
     transform="translate(-30.730976,-127.60526)">
    <rect
       style="fill:#ffffff;stroke:none;stroke-width:1;paint-order:markers stroke fill;stop-color:#000000;fill-opacity:1"
       id="rect16"
       width="70.692787"
       height="49.578499"
       x="30.730976"
       y="127.60526" />
    <rect
       style="fill:#888a85;stroke-width:1;paint-order:markers stroke fill;stop-color:#000000"
       id="rect10"
       width="30.735994"
       height="28.063299"
       x="63.20422"
       y="146.44775" />
    <path
       id="rect15"
       style="fill:#999999;stroke:#000000;stroke-width:1.20987;paint-order:markers stroke fill;stop-color:#000000"
       d="m 96.176332,143.47083 a 9.7176771,9.7176771 0 0 0 -0.015,0.006 9.7176771,9.7176771 0 0 0 -0.139425,0.0519 9.7176771,9.7176771 0 0 0 -0.138172,0.0537 9.7176771,9.7176771 0 0 0 -0.136925,0.0562 9.7176771,9.7176771 0 0 0 -0.136297,0.0582 9.7176771,9.7176771 0 0 0 -0.13567,0.06 9.7176771,9.7176771 0 0 0 -0.134425,0.0626 9.7176771,9.7176771 0 0 0 -0.133796,0.0644 9.7176771,9.7176771 0 0 0 -0.132546,0.0663 9.7176771,9.7176771 0 0 0 -0.131921,0.0681 9.7176771,9.7176771 0 0 0 -0.130046,0.0707 9.7176771,9.7176771 0 0 0 -0.129418,0.0725 9.7176771,9.7176771 0 0 0 -0.128797,0.0744 9.7176771,9.7176771 0 0 0 -0.126918,0.0762 9.7176771,9.7176771 0 0 0 -0.126294,0.0782 9.7176771,9.7176771 0 0 0 -0.124417,0.08 9.7176771,9.7176771 0 0 0 -0.123794,0.0825 9.7176771,9.7176771 0 0 0 -0.121917,0.0837 9.7176771,9.7176771 0 0 0 -0.121295,0.0857 9.7176771,9.7176771 0 0 0 -0.119414,0.0876 9.7176771,9.7176771 0 0 0 -0.118168,0.0894 9.7176771,9.7176771 0 0 0 -0.11691,0.0912 9.7176771,9.7176771 0 0 0 -0.115663,0.0932 9.7176771,9.7176771 0 0 0 -0.113789,0.0951 9.7176771,9.7176771 0 0 0 -0.113159,0.0963 9.7176771,9.7176771 0 0 0 -0.110667,0.0981 9.7176771,9.7176771 0 0 0 -0.110038,0.10006 9.7176771,9.7176771 0 0 0 -0.108162,0.10127 9.7176771,9.7176771 0 0 0 -0.106287,0.1032 9.7176771,9.7176771 0 0 0 -0.105041,0.10502 9.7176771,9.7176771 0 0 0 -0.103166,0.10622 9.7176771,9.7176771 0 0 0 -0.101908,0.10816 9.7176771,9.7176771 0 0 0 -0.100032,0.10938 9.7176771,9.7176771 0 0 0 -0.09816,0.1113 9.7176771,9.7176771 0 0 0 -0.09691,0.11252 9.7176771,9.7176771 0 0 0 -0.09441,0.11385 9.7176771,9.7176771 0 0 0 -0.09316,0.11506 9.7176771,9.7176771 0 0 0 -0.0919,0.11687 9.7176771,9.7176771 0 0 0 -0.08941,0.11821 9.7176771,9.7176771 0 0 0 -0.08752,0.11941 9.7176771,9.7176771 0 0 0 -0.08629,0.12129 9.7176771,9.7176771 0 0 0 -0.08378,0.12192 9.7176771,9.7176771 0 0 0 -0.08252,0.12379 9.7176771,9.7176771 0 0 0 -0.08003,0.12443 9.7176771,9.7176771 0 0 0 -0.07877,0.12567 9.7176771,9.7176771 0 0 0 -0.07628,0.12754 9.7176771,9.7176771 0 0 0 -0.0744,0.12816 9.7176771,9.7176771 0 0 0 -0.07253,0.12944 9.7176771,9.7176771 0 0 0 -0.07064,0.13003 9.7176771,9.7176771 0 0 0 -0.06877,0.13193 9.7176771,9.7176771 0 0 0 -0.06628,0.13254 9.7176771,9.7176771 0 0 0 -0.0644,0.13317 9.7176771,9.7176771 0 0 0 -0.06253,0.13443 9.7176771,9.7176771 0 0 0 -0.06064,0.13567 9.7176771,9.7176771 0 0 0 -0.05815,0.13629 9.7176771,9.7176771 0 0 0 -0.05627,0.13693 9.7176771,9.7176771 0 0 0 -0.05439,0.13817 9.7176771,9.7176771 0 0 0 -0.05189,0.1388 9.7176771,9.7176771 0 0 0 -0.05002,0.14004 9.7176771,9.7176771 0 0 0 -0.04814,0.14006 9.7176771,9.7176771 0 0 0 -0.04564,0.1413 9.7176771,9.7176771 0 0 0 -0.04314,0.14192 9.7176771,9.7176771 0 0 0 -0.04127,0.14256 9.7176771,9.7176771 0 0 0 -0.03938,0.14254 9.7176771,9.7176771 0 0 0 -0.03689,0.1438 9.7176771,9.7176771 0 0 0 -0.03501,0.14443 9.7176771,9.7176771 0 0 0 -0.03251,0.14442 9.7176771,9.7176771 0 0 0 -0.03002,0.14505 9.7176771,9.7176771 0 0 0 -0.02813,0.14567 9.7176771,9.7176771 0 0 0 -0.02625,0.14631 9.7176771,9.7176771 0 0 0 -0.02313,0.1463 9.7176771,9.7176771 0 0 0 -0.02189,0.14693 9.7176771,9.7176771 0 0 0 -0.01875,0.14692 9.7176771,9.7176771 0 0 0 -0.01751,0.14756 9.7176771,9.7176771 0 0 0 -0.01439,0.14754 9.7176771,9.7176771 0 0 0 -0.01251,0.14756 9.7176771,9.7176771 0 0 0 -0.01004,0.14817 9.7176771,9.7176771 0 0 0 -0.0081,0.14818 9.7176771,9.7176771 0 0 0 -0.0057,0.14818 9.7176771,9.7176771 0 0 0 -0.0031,0.14817 9.7176771,9.7176771 0 0 0 -0.0012,0.14818 9.7176771,9.7176771 0 0 0 6.28e-4,0.13693 9.7176771,9.7176771 0 0 0 0.0037,0.14817 9.7176771,9.7176771 0 0 0 0.005,0.14818 9.7176771,9.7176771 0 0 0 0.0081,0.14818 9.7176771,9.7176771 0 0 0 0.01004,0.14754 9.7176771,9.7176771 0 0 0 0.01186,0.14818 9.7176771,9.7176771 0 0 0 0.015,0.14755 9.7176771,9.7176771 0 0 0 0.01626,0.14756 9.7176771,9.7176771 0 0 0 0.01938,0.14693 9.7176771,9.7176771 0 0 0 0.02126,0.14692 9.7176771,9.7176771 0 0 0 0.02313,0.1463 9.7176771,9.7176771 0 0 0 0.02564,0.14568 9.7176771,9.7176771 0 0 0 0.02813,0.14567 9.7176771,9.7176771 0 0 0 0.03002,0.14568 9.7176771,9.7176771 0 0 0 0.03251,0.14442 9.7176771,9.7176771 0 0 0 0.03501,0.14442 9.7176771,9.7176771 0 0 0 0.03626,0.14381 9.7176771,9.7176771 0 0 0 0.03939,0.14255 9.7176771,9.7176771 0 0 0 0.04064,0.14254 9.7176771,9.7176771 0 0 0 0.04376,0.14193 9.7176771,9.7176771 0 0 0 0.04564,0.1413 9.7176771,9.7176771 0 0 0 0.04752,0.14068 9.7176771,9.7176771 0 0 0 0.04939,0.13942 9.7176771,9.7176771 0 0 0 0.05189,0.1388 9.7176771,9.7176771 0 0 0 0.0544,0.13817 9.7176771,9.7176771 0 0 0 0.05564,0.13755 9.7176771,9.7176771 0 0 0 0.05877,0.1363 9.7176771,9.7176771 0 0 0 0.06002,0.13566 9.7176771,9.7176771 0 0 0 0.06253,0.13443 9.7176771,9.7176771 0 0 0 0.0644,0.1338 9.7176771,9.7176771 0 0 0 0.06628,0.13254 9.7176771,9.7176771 0 0 0 0.06815,0.1313 9.7176771,9.7176771 0 0 0 0.07066,0.13066 9.7176771,9.7176771 0 0 0 0.07252,0.12944 9.7176771,9.7176771 0 0 0 0.07439,0.12816 9.7176771,9.7176771 0 0 0 0.07628,0.12754 9.7176771,9.7176771 0 0 0 0.07814,0.12567 9.7176771,9.7176771 0 0 0 0.08003,0.12504 9.7176771,9.7176771 0 0 0 0.08191,0.12318 9.7176771,9.7176771 0 0 0 0.0844,0.12253 9.7176771,9.7176771 0 0 0 0.08566,0.12063 9.7176771,9.7176771 0 0 0 0.08753,0.12002 9.7176771,9.7176771 0 0 0 0.08941,0.1182 9.7176771,9.7176771 0 0 0 0.09128,0.11688 9.7176771,9.7176771 0 0 0 0.09316,0.11566 9.7176771,9.7176771 0 0 0 0.09504,0.11373 9.7176771,9.7176771 0 0 0 0.09628,0.11251 9.7176771,9.7176771 0 0 0 0.09816,0.11131 9.7176771,9.7176771 0 0 0 0.100032,0.10938 9.7176771,9.7176771 0 0 0 0.101291,0.10816 9.7176771,9.7176771 0 0 0 0.103166,0.10695 9.7176771,9.7176771 0 0 0 0.105041,0.10441 9.7176771,9.7176771 0 0 0 0.106287,0.10381 9.7176771,9.7176771 0 0 0 0.108162,0.10127 9.7176771,9.7176771 0 0 0 0.109409,0.10005 9.7176771,9.7176771 0 0 0 0.110667,0.0987 9.7176771,9.7176771 0 0 0 0.112542,0.0963 9.7176771,9.7176771 0 0 0 0.114417,0.095 9.7176771,9.7176771 0 0 0 0.115035,0.0932 9.7176771,9.7176771 0 0 0 0.116922,0.0912 9.7176771,9.7176771 0 0 0 0.118168,0.0894 9.7176771,9.7176771 0 0 0 0.119414,0.0882 9.7176771,9.7176771 0 0 0 0.121294,0.0857 9.7176771,9.7176771 0 0 0 0.121918,0.0845 9.7176771,9.7176771 0 0 0 0.123166,0.0819 9.7176771,9.7176771 0 0 0 0.125045,0.0807 9.7176771,9.7176771 0 0 0 0.12567,0.0781 9.7176771,9.7176771 0 0 0 0.126918,0.0769 9.7176771,9.7176771 0 0 0 0.128796,0.0744 9.7176771,9.7176771 0 0 0 0.128795,0.0725 9.7176771,9.7176771 0 0 0 0.130668,0.0707 9.7176771,9.7176771 0 0 0 0.131298,0.0681 9.7176771,9.7176771 0 0 0 0.132545,0.0669 9.7176771,9.7176771 0 0 0 0.133797,0.0644 9.7176771,9.7176771 0 0 0 0.134422,0.0626 9.7176771,9.7176771 0 0 0 0.135672,0.0606 9.7176771,9.7176771 0 0 0 0.136298,0.0582 9.7176771,9.7176771 0 0 0 0.136925,0.0563 9.7176771,9.7176771 0 0 0 0.138172,0.0545 9.7176771,9.7176771 0 0 0 0.138798,0.0519 9.7176771,9.7176771 0 0 0 0.02625,0.01 z" />
    <path
       id="path50"
       style="fill:#999999;stroke:#000000;stroke-width:1.20987;paint-order:markers stroke fill;stop-color:#000000"
       d="m 91.319247,134.42705 -48.245587,6.3e-4 v 8.46295 a 9.7176771,9.7176771 0 0 0 -9.488937,9.71463 9.7176771,9.7176771 0 0 0 9.488937,9.71465 v 8.46357 h 48.245587 v -9.04316 a 9.7176771,9.7176771 0 0 1 -0.02625,-0.01 9.7176771,9.7176771 0 0 1 -0.138798,-0.0519 9.7176771,9.7176771 0 0 1 -0.138172,-0.0544 9.7176771,9.7176771 0 0 1 -0.136925,-0.0563 9.7176771,9.7176771 0 0 1 -0.136298,-0.0582 9.7176771,9.7176771 0 0 1 -0.135669,-0.0606 9.7176771,9.7176771 0 0 1 -0.134425,-0.0625 9.7176771,9.7176771 0 0 1 -0.133797,-0.0644 9.7176771,9.7176771 0 0 1 -0.132545,-0.0669 9.7176771,9.7176771 0 0 1 -0.131294,-0.0681 9.7176771,9.7176771 0 0 1 -0.130672,-0.0707 9.7176771,9.7176771 0 0 1 -0.128795,-0.0725 9.7176771,9.7176771 0 0 1 -0.128793,-0.0744 9.7176771,9.7176771 0 0 1 -0.126921,-0.077 9.7176771,9.7176771 0 0 1 -0.12567,-0.0782 9.7176771,9.7176771 0 0 1 -0.125042,-0.0807 9.7176771,9.7176771 0 0 1 -0.123169,-0.0819 9.7176771,9.7176771 0 0 1 -0.121919,-0.0844 9.7176771,9.7176771 0 0 1 -0.121289,-0.0857 9.7176771,9.7176771 0 0 1 -0.119414,-0.0882 9.7176771,9.7176771 0 0 1 -0.118169,-0.0894 9.7176771,9.7176771 0 0 1 -0.116909,-0.0912 9.7176771,9.7176771 0 0 1 -0.115047,-0.0932 9.7176771,9.7176771 0 0 1 -0.114418,-0.095 9.7176771,9.7176771 0 0 1 -0.112542,-0.0963 9.7176771,9.7176771 0 0 1 -0.110667,-0.0987 9.7176771,9.7176771 0 0 1 -0.109408,-0.10006 9.7176771,9.7176771 0 0 1 -0.108163,-0.10127 9.7176771,9.7176771 0 0 1 -0.106287,-0.1038 9.7176771,9.7176771 0 0 1 -0.105041,-0.10441 9.7176771,9.7176771 0 0 1 -0.103166,-0.10696 9.7176771,9.7176771 0 0 1 -0.101278,-0.10816 9.7176771,9.7176771 0 0 1 -0.100032,-0.10937 9.7176771,9.7176771 0 0 1 -0.09816,-0.11131 9.7176771,9.7176771 0 0 1 -0.09628,-0.11252 9.7176771,9.7176771 0 0 1 -0.09503,-0.11385 9.7176771,9.7176771 0 0 1 -0.09316,-0.11566 9.7176771,9.7176771 0 0 1 -0.09128,-0.11687 9.7176771,9.7176771 0 0 1 -0.08941,-0.11821 9.7176771,9.7176771 0 0 1 -0.08753,-0.12002 9.7176771,9.7176771 0 0 1 -0.08565,-0.12062 9.7176771,9.7176771 0 0 1 -0.08441,-0.12254 9.7176771,9.7176771 0 0 1 -0.08191,-0.12317 9.7176771,9.7176771 0 0 1 -0.08003,-0.12504 9.7176771,9.7176771 0 0 1 -0.07815,-0.12567 9.7176771,9.7176771 0 0 1 -0.07628,-0.12755 9.7176771,9.7176771 0 0 1 -0.07441,-0.12817 9.7176771,9.7176771 0 0 1 -0.07252,-0.12942 9.7176771,9.7176771 0 0 1 -0.07064,-0.13067 9.7176771,9.7176771 0 0 1 -0.06815,-0.13129 9.7176771,9.7176771 0 0 1 -0.06628,-0.13256 9.7176771,9.7176771 0 0 1 -0.0644,-0.13378 9.7176771,9.7176771 0 0 1 -0.06253,-0.13443 9.7176771,9.7176771 0 0 1 -0.06002,-0.13568 9.7176771,9.7176771 0 0 1 -0.05878,-0.13629 9.7176771,9.7176771 0 0 1 -0.05564,-0.13755 9.7176771,9.7176771 0 0 1 -0.0544,-0.13817 9.7176771,9.7176771 0 0 1 -0.05189,-0.13879 9.7176771,9.7176771 0 0 1 -0.0494,-0.13943 9.7176771,9.7176771 0 0 1 -0.04751,-0.14068 9.7176771,9.7176771 0 0 1 -0.04564,-0.14129 9.7176771,9.7176771 0 0 1 -0.04376,-0.14193 9.7176771,9.7176771 0 0 1 -0.04064,-0.14255 9.7176771,9.7176771 0 0 1 -0.03939,-0.14255 9.7176771,9.7176771 0 0 1 -0.03626,-0.1438 9.7176771,9.7176771 0 0 1 -0.03501,-0.14442 9.7176771,9.7176771 0 0 1 -0.03251,-0.14444 9.7176771,9.7176771 0 0 1 -0.03001,-0.14567 9.7176771,9.7176771 0 0 1 -0.02814,-0.14568 9.7176771,9.7176771 0 0 1 -0.02564,-0.14567 9.7176771,9.7176771 0 0 1 -0.02313,-0.14631 9.7176771,9.7176771 0 0 1 -0.02126,-0.14692 9.7176771,9.7176771 0 0 1 -0.01938,-0.14693 9.7176771,9.7176771 0 0 1 -0.01626,-0.14754 9.7176771,9.7176771 0 0 1 -0.015,-0.14756 9.7176771,9.7176771 0 0 1 -0.01186,-0.14817 9.7176771,9.7176771 0 0 1 -0.01004,-0.14756 9.7176771,9.7176771 0 0 1 -0.0081,-0.14817 9.7176771,9.7176771 0 0 1 -0.005,-0.14817 9.7176771,9.7176771 0 0 1 -0.0038,-0.14819 9.7176771,9.7176771 0 0 1 -6.27e-4,-0.13692 9.7176771,9.7176771 0 0 1 0.0012,-0.14817 9.7176771,9.7176771 0 0 1 0.0031,-0.14819 9.7176771,9.7176771 0 0 1 0.0057,-0.14817 9.7176771,9.7176771 0 0 1 0.0081,-0.14817 9.7176771,9.7176771 0 0 1 0.01004,-0.14818 9.7176771,9.7176771 0 0 1 0.01251,-0.14755 9.7176771,9.7176771 0 0 1 0.01437,-0.14756 9.7176771,9.7176771 0 0 1 0.01751,-0.14754 9.7176771,9.7176771 0 0 1 0.01875,-0.14693 9.7176771,9.7176771 0 0 1 0.02189,-0.14693 9.7176771,9.7176771 0 0 1 0.02313,-0.1463 9.7176771,9.7176771 0 0 1 0.02625,-0.1463 9.7176771,9.7176771 0 0 1 0.02813,-0.14567 9.7176771,9.7176771 0 0 1 0.03002,-0.14505 9.7176771,9.7176771 0 0 1 0.03251,-0.14444 9.7176771,9.7176771 0 0 1 0.03501,-0.14442 9.7176771,9.7176771 0 0 1 0.03689,-0.14379 9.7176771,9.7176771 0 0 1 0.03939,-0.14256 9.7176771,9.7176771 0 0 1 0.04127,-0.14255 9.7176771,9.7176771 0 0 1 0.04314,-0.14192 9.7176771,9.7176771 0 0 1 0.04564,-0.1413 9.7176771,9.7176771 0 0 1 0.04814,-0.14005 9.7176771,9.7176771 0 0 1 0.05002,-0.14004 9.7176771,9.7176771 0 0 1 0.05189,-0.13881 9.7176771,9.7176771 0 0 1 0.0544,-0.13817 9.7176771,9.7176771 0 0 1 0.05627,-0.13692 9.7176771,9.7176771 0 0 1 0.05815,-0.13631 9.7176771,9.7176771 0 0 1 0.06065,-0.13566 9.7176771,9.7176771 0 0 1 0.06253,-0.13443 9.7176771,9.7176771 0 0 1 0.0644,-0.13317 9.7176771,9.7176771 0 0 1 0.06628,-0.13254 9.7176771,9.7176771 0 0 1 0.06877,-0.13192 9.7176771,9.7176771 0 0 1 0.07066,-0.13005 9.7176771,9.7176771 0 0 1 0.07252,-0.12942 9.7176771,9.7176771 0 0 1 0.07439,-0.12816 9.7176771,9.7176771 0 0 1 0.07628,-0.12755 9.7176771,9.7176771 0 0 1 0.07877,-0.12567 9.7176771,9.7176771 0 0 1 0.08003,-0.12442 9.7176771,9.7176771 0 0 1 0.08253,-0.12379 9.7176771,9.7176771 0 0 1 0.08378,-0.12192 9.7176771,9.7176771 0 0 1 0.08628,-0.12129 9.7176771,9.7176771 0 0 1 0.08753,-0.11942 9.7176771,9.7176771 0 0 1 0.08941,-0.1182 9.7176771,9.7176771 0 0 1 0.0919,-0.11688 9.7176771,9.7176771 0 0 1 0.09316,-0.11505 9.7176771,9.7176771 0 0 1 0.09441,-0.11373 9.7176771,9.7176771 0 0 1 0.09691,-0.11252 9.7176771,9.7176771 0 0 1 0.09816,-0.11131 9.7176771,9.7176771 0 0 1 0.100032,-0.10937 9.7176771,9.7176771 0 0 1 0.101908,-0.10816 9.7176771,9.7176771 0 0 1 0.103165,-0.10562 9.7176771,9.7176771 0 0 1 0.105041,-0.10502 9.7176771,9.7176771 0 0 1 0.106287,-0.10381 9.7176771,9.7176771 0 0 1 0.108163,-0.10066 9.7176771,9.7176771 0 0 1 0.110038,-0.10066 9.7176771,9.7176771 0 0 1 0.110667,-0.0975 9.7176771,9.7176771 0 0 1 0.113171,-0.0963 9.7176771,9.7176771 0 0 1 0.113788,-0.0957 9.7176771,9.7176771 0 0 1 0.115664,-0.0932 9.7176771,9.7176771 0 0 1 0.116922,-0.0912 9.7176771,9.7176771 0 0 1 0.118168,-0.0894 9.7176771,9.7176771 0 0 1 0.119414,-0.0876 9.7176771,9.7176771 0 0 1 0.121295,-0.0857 9.7176771,9.7176771 0 0 1 0.121917,-0.0837 9.7176771,9.7176771 0 0 1 0.123794,-0.0825 9.7176771,9.7176771 0 0 1 0.124417,-0.0794 9.7176771,9.7176771 0 0 1 0.126294,-0.0782 9.7176771,9.7176771 0 0 1 0.126921,-0.0763 9.7176771,9.7176771 0 0 1 0.128794,-0.0744 9.7176771,9.7176771 0 0 1 0.129421,-0.0725 9.7176771,9.7176771 0 0 1 0.130045,-0.0707 9.7176771,9.7176771 0 0 1 0.131922,-0.0681 9.7176771,9.7176771 0 0 1 0.132545,-0.0663 9.7176771,9.7176771 0 0 1 0.133797,-0.0644 9.7176771,9.7176771 0 0 1 0.134422,-0.0626 9.7176771,9.7176771 0 0 1 0.135672,-0.06 9.7176771,9.7176771 0 0 1 0.136298,-0.0582 9.7176771,9.7176771 0 0 1 0.136922,-0.0563 9.7176771,9.7176771 0 0 1 0.138172,-0.0537 9.7176771,9.7176771 0 0 1 0.139425,-0.0519 9.7176771,9.7176771 0 0 1 0.015,-0.006 z m -21.791353,8.06843 a 9.7176771,9.7176771 0 0 1 9.717766,9.71777 9.7176771,9.7176771 0 0 1 -9.717766,9.71777 9.7176771,9.7176771 0 0 1 -9.717769,-9.71777 9.7176771,9.7176771 0 0 1 9.717769,-9.71777 z" />
  </g>
</svg>
