<?xml version="1.0" encoding="UTF-8" standalone="no"?>
<svg
   xmlns:dc="http://purl.org/dc/elements/1.1/"
   xmlns:cc="http://creativecommons.org/ns#"
   xmlns:rdf="http://www.w3.org/1999/02/22-rdf-syntax-ns#"
   xmlns:svg="http://www.w3.org/2000/svg"
   xmlns="http://www.w3.org/2000/svg"
   xmlns:sodipodi="http://sodipodi.sourceforge.net/DTD/sodipodi-0.dtd"
   xmlns:inkscape="http://www.inkscape.org/namespaces/inkscape"
   width="70mm"
   height="50mm"
   viewBox="0 0 70 50.000001"
   version="1.1"
   id="svg237"
   sodipodi:docname="1.svg"
   inkscape:version="1.0.1 (3bc2e813f5, 2020-09-07)"
   inkscape:export-filename="C:\Users\stanley\OneDrive - Szkola Glowna Sluzby Pozarniczej\SGSP\inkscape_zadania\svg\k2_rozmieszczanie\1.png"
   inkscape:export-xdpi="300"
   inkscape:export-ydpi="300">
  <defs
     id="defs231" />
  <sodipodi:namedview
     id="base"
     pagecolor="#ffffff"
     bordercolor="#666666"
     borderopacity="1.0"
     inkscape:pageopacity="0.0"
     inkscape:pageshadow="2"
     inkscape:zoom="2.8"
     inkscape:cx="102.61277"
     inkscape:cy="111.61903"
     inkscape:document-units="mm"
     inkscape:current-layer="layer1"
     showgrid="false"
     fit-margin-top="0"
     fit-margin-left="0"
     fit-margin-right="0"
     fit-margin-bottom="0"
     inkscape:window-width="1920"
     inkscape:window-height="1009"
     inkscape:window-x="-8"
     inkscape:window-y="-8"
     inkscape:window-maximized="1"
     inkscape:pagecheckerboard="0"
     inkscape:document-rotation="0" />
  <metadata
     id="metadata234">
    <rdf:RDF>
      <cc:Work
         rdf:about="">
        <dc:format>image/svg+xml</dc:format>
        <dc:type
           rdf:resource="http://purl.org/dc/dcmitype/StillImage" />
      </cc:Work>
    </rdf:RDF>
  </metadata>
  <g
     inkscape:label="Layer 1"
     inkscape:groupmode="layer"
     id="layer1"
     transform="translate(-30.730976,-127.60526)">
    <rect
       style="fill:#ffffff;stroke:#ffffff;stroke-width:1;stroke-linecap:round;stop-color:#000000"
       id="rect174"
       width="76.162201"
       height="54.901039"
       x="28.368626"
       y="125.24291" />
    <g
       id="g956"
       style="opacity:0.6"
       transform="matrix(0.26458333,0,0,0.26458333,53.455822,-34.681184)">
      <polygon
         class="st2"
         points="65.31,726.24 43.2,726.24 21.09,726.24 32.14,707.09 43.2,687.94 54.25,707.09 "
         id="polygon954" />
    </g>
    <g
       id="g960"
       style="opacity:0.6"
       transform="matrix(0.26458333,0,0,0.26458333,53.458468,-44.814726)">
      <polygon
         class="st2"
         points="109.53,726.24 87.42,726.24 65.31,726.24 76.37,707.09 87.42,687.94 98.48,707.09 "
         id="polygon958" />
    </g>
    <g
       id="g964"
       style="opacity:0.6"
       transform="matrix(0.26458333,0,0,0.26458333,6.6497083,-34.681184)">
      <polygon
         class="st2"
         points="153.76,726.24 131.64,726.24 109.53,726.24 120.59,707.09 131.64,687.94 142.7,707.09 "
         id="polygon962" />
    </g>
    <g
       id="g968"
       style="opacity:0.6"
       transform="matrix(0.26458333,0,0,0.26458333,30.056073,-34.681184)">
      <polygon
         class="st2"
         points="197.98,726.24 175.87,726.24 153.76,726.24 164.81,707.09 175.87,687.94 186.92,707.09 "
         id="polygon966" />
    </g>
    <g
       id="g972"
       style="opacity:0.6"
       transform="matrix(0.26458333,0,0,0.26458333,-16.751364,-24.547643)">
      <polygon
         class="st2"
         points="242.2,726.24 220.09,726.24 197.98,726.24 209.03,707.09 220.09,687.94 231.15,707.09 "
         id="polygon970" />
    </g>
    <g
       id="g64"
       style="opacity:0.6"
       transform="matrix(0.26458333,0,0,0.26458333,30.050781,-44.814726)">
      <polygon
         class="st2"
         points="32.14,707.09 43.2,687.94 54.25,707.09 65.31,726.24 43.2,726.24 21.09,726.24 "
         id="polygon62" />
    </g>
    <g
       id="g68"
       style="opacity:0.6"
       transform="matrix(0.26458333,0,0,0.26458333,30.053427,-44.814726)">
      <polygon
         class="st2"
         points="76.37,707.09 87.42,687.94 98.48,707.09 109.53,726.24 87.42,726.24 65.31,726.24 "
         id="polygon66" />
    </g>
    <g
       id="g72"
       style="opacity:0.6"
       transform="matrix(0.26458333,0,0,0.26458333,30.05475,-44.814726)">
      <polygon
         class="st2"
         points="120.59,707.09 131.64,687.94 142.7,707.09 153.76,726.24 131.64,726.24 109.53,726.24 "
         id="polygon70" />
    </g>
    <g
       id="g76"
       style="opacity:0.6"
       transform="matrix(0.26458333,0,0,0.26458333,41.758593,-44.814726)">
      <polygon
         class="st2"
         points="164.81,707.09 175.87,687.94 186.92,707.09 197.98,726.24 175.87,726.24 153.76,726.24 "
         id="polygon74" />
    </g>
    <g
       id="g80"
       style="opacity:0.6"
       transform="matrix(0.26458333,0,0,0.26458333,-5.0488436,-34.681184)">
      <polygon
         class="st2"
         points="209.03,707.09 220.09,687.94 231.15,707.09 242.2,726.24 220.09,726.24 197.98,726.24 "
         id="polygon78" />
    </g>
    <g
       id="g148"
       style="opacity:0.6"
       transform="matrix(0.26458333,0,0,0.26458333,53.455822,-24.547643)">
      <polygon
         class="st2"
         points="43.2,687.94 54.25,707.09 65.31,726.24 43.2,726.24 21.09,726.24 32.14,707.09 "
         id="polygon146" />
    </g>
    <g
       id="g152"
       style="opacity:0.6"
       transform="matrix(0.26458333,0,0,0.26458333,53.458468,-24.547643)">
      <polygon
         class="st2"
         points="87.42,687.94 98.48,707.09 109.53,726.24 87.42,726.24 65.31,726.24 76.37,707.09 "
         id="polygon150" />
    </g>
    <g
       id="g156"
       style="opacity:0.6"
       transform="matrix(0.26458333,0,0,0.26458333,53.459791,-34.681184)">
      <polygon
         class="st2"
         points="131.64,687.94 142.7,707.09 153.76,726.24 131.64,726.24 109.53,726.24 120.59,707.09 "
         id="polygon154" />
    </g>
    <g
       id="g160"
       style="opacity:0.6"
       transform="matrix(0.26458333,0,0,0.26458333,6.6510312,-24.547643)">
      <polygon
         class="st2"
         points="175.87,687.94 186.92,707.09 197.98,726.24 175.87,726.24 153.76,726.24 164.81,707.09 "
         id="polygon158" />
    </g>
    <g
       id="g164"
       style="opacity:0.6"
       transform="matrix(0.26458333,0,0,0.26458333,30.058718,-24.547643)">
      <polygon
         class="st2"
         points="220.09,687.94 231.15,707.09 242.2,726.24 220.09,726.24 197.98,726.24 209.03,707.09 "
         id="polygon162" />
    </g>
    <text
       xml:space="preserve"
       style="font-style:normal;font-weight:normal;font-size:4.68482px;line-height:1.25;font-family:sans-serif;fill:#000000;fill-opacity:1;stroke:none;stroke-width:0.117121"
       x="61.370983"
       y="174.63283"
       id="text6308"><tspan
         sodipodi:role="line"
         id="tspan6306"
         style="stroke-width:0.117121"
         x="61.370983"
         y="174.63283">5x3</tspan></text>
  </g>
</svg>
