<?xml version="1.0" encoding="UTF-8" standalone="no"?>
<svg
   xmlns:dc="http://purl.org/dc/elements/1.1/"
   xmlns:cc="http://creativecommons.org/ns#"
   xmlns:rdf="http://www.w3.org/1999/02/22-rdf-syntax-ns#"
   xmlns:svg="http://www.w3.org/2000/svg"
   xmlns="http://www.w3.org/2000/svg"
   xmlns:sodipodi="http://sodipodi.sourceforge.net/DTD/sodipodi-0.dtd"
   xmlns:inkscape="http://www.inkscape.org/namespaces/inkscape"
   width="70mm"
   height="50mm"
   viewBox="0 0 70 50.000001"
   version="1.1"
   id="svg237"
   sodipodi:docname="2.svg"
   inkscape:version="1.0.1 (3bc2e813f5, 2020-09-07)"
   inkscape:export-filename="C:\Users\stanley\OneDrive - Szkola Glowna Sluzby Pozarniczej\SGSP\inkscape_zadania\svg\k2_rozmieszczanie\2.png"
   inkscape:export-xdpi="300"
   inkscape:export-ydpi="300">
  <defs
     id="defs231" />
  <sodipodi:namedview
     id="base"
     pagecolor="#ffffff"
     bordercolor="#666666"
     borderopacity="1.0"
     inkscape:pageopacity="0.0"
     inkscape:pageshadow="2"
     inkscape:zoom="1.4"
     inkscape:cx="38.408471"
     inkscape:cy="91.509583"
     inkscape:document-units="mm"
     inkscape:current-layer="layer1"
     showgrid="false"
     fit-margin-top="0"
     fit-margin-left="0"
     fit-margin-right="0"
     fit-margin-bottom="0"
     inkscape:window-width="1920"
     inkscape:window-height="1009"
     inkscape:window-x="-8"
     inkscape:window-y="-8"
     inkscape:window-maximized="1"
     inkscape:pagecheckerboard="0"
     inkscape:document-rotation="0" />
  <metadata
     id="metadata234">
    <rdf:RDF>
      <cc:Work
         rdf:about="">
        <dc:format>image/svg+xml</dc:format>
        <dc:type
           rdf:resource="http://purl.org/dc/dcmitype/StillImage" />
      </cc:Work>
    </rdf:RDF>
  </metadata>
  <g
     inkscape:label="Layer 1"
     inkscape:groupmode="layer"
     id="layer1"
     transform="translate(-30.730976,-127.60526)">
    <rect
       style="fill:#ffffff;stroke:#ffffff;stroke-width:1;stroke-linecap:round;stop-color:#000000"
       id="rect56"
       width="80.697914"
       height="58.775295"
       x="28.085142"
       y="124.95943" />
    <path
       id="rect55843"
       style="opacity:0.6;fill:#000000;stroke:none;stroke-width:0.233834;stroke-miterlimit:4;stroke-dasharray:none;stroke-opacity:1;paint-order:fill markers stroke"
       d="m 49.317887,146.42127 v 2.6681 h -2.668128 v 1.37695 h 2.668128 v 2.66814 h 1.376934 v -2.66814 h 2.668128 v -1.37695 h -2.668128 v -2.6681 z" />
    <path
       id="path56008"
       style="opacity:0.6;fill:#000000;stroke:none;stroke-width:0.233834;stroke-miterlimit:4;stroke-dasharray:none;stroke-opacity:1;paint-order:fill markers stroke"
       d="m 56.560252,146.42127 v 2.6681 h -2.668127 v 1.37695 h 2.668127 v 2.66814 h 1.376935 v -2.66814 h 2.668127 v -1.37695 h -2.668127 v -2.6681 z" />
    <path
       id="path56010"
       style="opacity:0.6;fill:#000000;stroke:none;stroke-width:0.233834;stroke-miterlimit:4;stroke-dasharray:none;stroke-opacity:1;paint-order:fill markers stroke"
       d="m 63.80262,146.42127 v 2.6681 h -2.668131 v 1.37695 h 2.668131 v 2.66814 h 1.376931 v -2.66814 h 2.668131 v -1.37695 h -2.668131 v -2.6681 z" />
    <path
       id="path56012"
       style="opacity:0.6;fill:#000000;stroke:none;stroke-width:0.233834;stroke-miterlimit:4;stroke-dasharray:none;stroke-opacity:1;paint-order:fill markers stroke"
       d="m 71.044986,146.42127 v 2.6681 h -2.668129 v 1.37695 h 2.668129 v 2.66814 h 1.376933 v -2.66814 h 2.668125 v -1.37695 h -2.668125 v -2.6681 z" />
    <path
       id="path56014"
       style="opacity:0.6;fill:#000000;stroke:none;stroke-width:0.233834;stroke-miterlimit:4;stroke-dasharray:none;stroke-opacity:1;paint-order:fill markers stroke"
       d="m 71.044982,139.17887 v 2.6681 h -2.668124 v 1.37695 h 2.668124 v 2.66814 h 1.376938 v -2.66814 h 2.668124 v -1.37695 H 72.42192 v -2.6681 z" />
    <path
       id="path56016"
       style="opacity:0.6;fill:#000000;stroke:none;stroke-width:0.233834;stroke-miterlimit:4;stroke-dasharray:none;stroke-opacity:1;paint-order:fill markers stroke"
       d="m 78.287353,139.17887 v 2.6681 h -2.668135 v 1.37695 h 2.668135 v 2.66814 h 1.376927 v -2.66814 h 2.668135 v -1.37695 H 79.66428 v -2.6681 z" />
    <path
       id="path56018"
       style="opacity:0.6;fill:#000000;stroke:none;stroke-width:0.233834;stroke-miterlimit:4;stroke-dasharray:none;stroke-opacity:1;paint-order:fill markers stroke"
       d="m 92.772079,139.17887 v 2.6681 h -2.668125 v 1.37695 h 2.668125 v 2.66814 h 1.376933 v -2.66814 h 2.668129 v -1.37695 h -2.668129 v -2.6681 z" />
    <path
       id="path56020"
       style="opacity:0.6;fill:#000000;stroke:none;stroke-width:0.233834;stroke-miterlimit:4;stroke-dasharray:none;stroke-opacity:1;paint-order:fill markers stroke"
       d="m 34.833155,146.42127 v 2.6681 h -2.668127 v 1.37695 h 2.668127 v 2.66814 h 1.376935 v -2.66814 h 2.668127 v -1.37695 H 36.21009 v -2.6681 z" />
    <path
       id="path56022"
       style="opacity:0.6;fill:#000000;stroke:none;stroke-width:0.233834;stroke-miterlimit:4;stroke-dasharray:none;stroke-opacity:1;paint-order:fill markers stroke"
       d="m 34.833152,139.17887 v 2.6681 h -2.668121 v 1.37695 h 2.668121 v 2.66814 h 1.376941 v -2.66814 h 2.668121 v -1.37695 h -2.668121 v -2.6681 z" />
    <path
       id="path56024"
       style="opacity:0.6;fill:#000000;stroke:none;stroke-width:0.233834;stroke-miterlimit:4;stroke-dasharray:none;stroke-opacity:1;paint-order:fill markers stroke"
       d="m 49.317891,139.17887 v 2.6681 h -2.668137 v 1.37695 h 2.668137 v 2.66814 h 1.376927 v -2.66814 h 2.668135 v -1.37695 h -2.668135 v -2.6681 z" />
    <path
       id="path56026"
       style="opacity:0.6;fill:#000000;stroke:none;stroke-width:0.233834;stroke-miterlimit:4;stroke-dasharray:none;stroke-opacity:1;paint-order:fill markers stroke"
       d="m 56.560253,153.66366 v 2.66811 h -2.668128 v 1.37696 h 2.668128 v 2.66812 h 1.376934 v -2.66812 h 2.668128 v -1.37696 h -2.668128 v -2.66811 z" />
    <path
       id="path56028"
       style="opacity:0.6;fill:#000000;stroke:none;stroke-width:0.233834;stroke-miterlimit:4;stroke-dasharray:none;stroke-opacity:1;paint-order:fill markers stroke"
       d="m 63.802618,153.66366 v 2.66811 h -2.668127 v 1.37696 h 2.668127 v 2.66812 h 1.376935 v -2.66812 h 2.668127 v -1.37696 h -2.668127 v -2.66811 z" />
    <path
       id="path56030"
       style="opacity:0.6;fill:#000000;stroke:none;stroke-width:0.233834;stroke-miterlimit:4;stroke-dasharray:none;stroke-opacity:1;paint-order:fill markers stroke"
       d="m 78.287351,153.66366 v 2.66811 H 75.61922 v 1.37696 h 2.668131 v 2.66812 h 1.376931 v -2.66812 h 2.668131 v -1.37696 h -2.668131 v -2.66811 z" />
    <path
       id="path56032"
       style="opacity:0.6;fill:#000000;stroke:none;stroke-width:0.233834;stroke-miterlimit:4;stroke-dasharray:none;stroke-opacity:1;paint-order:fill markers stroke"
       d="m 92.772083,153.66366 v 2.66811 h -2.668129 v 1.37696 h 2.668129 v 2.66812 h 1.376933 v -2.66812 h 2.668125 v -1.37696 h -2.668125 v -2.66811 z" />
    <path
       id="path56034"
       style="opacity:0.6;fill:#000000;stroke:none;stroke-width:0.233834;stroke-miterlimit:4;stroke-dasharray:none;stroke-opacity:1;paint-order:fill markers stroke"
       d="m 63.802616,139.17887 v 2.66811 h -2.668124 v 1.37696 h 2.668124 v 2.66812 h 1.376938 v -2.66812 h 2.668124 v -1.37696 h -2.668124 v -2.66811 z" />
    <path
       id="path56036"
       style="opacity:0.6;fill:#000000;stroke:none;stroke-width:0.233834;stroke-miterlimit:4;stroke-dasharray:none;stroke-opacity:1;paint-order:fill markers stroke"
       d="m 85.529719,139.17887 v 2.66811 h -2.668135 v 1.37696 h 2.668135 v 2.66812 h 1.376927 v -2.66812 h 2.668135 v -1.37696 h -2.668135 v -2.66811 z" />
    <path
       id="path56038"
       style="opacity:0.6;fill:#000000;stroke:none;stroke-width:0.233834;stroke-miterlimit:4;stroke-dasharray:none;stroke-opacity:1;paint-order:fill markers stroke"
       d="m 100.01445,139.17887 v 2.66811 h -2.66813 v 1.37696 h 2.66813 v 2.66812 h 1.37693 v -2.66812 h 2.66813 v -1.37696 h -2.66813 v -2.66811 z" />
    <path
       id="path56040"
       style="opacity:0.6;fill:#000000;stroke:none;stroke-width:0.233834;stroke-miterlimit:4;stroke-dasharray:none;stroke-opacity:1;paint-order:fill markers stroke"
       d="m 42.075521,146.42127 v 2.66811 h -2.668127 v 1.37696 h 2.668127 v 2.66812 h 1.376935 v -2.66812 h 2.668127 v -1.37696 h -2.668127 v -2.66811 z" />
    <path
       id="path56042"
       style="opacity:0.6;fill:#000000;stroke:none;stroke-width:0.233834;stroke-miterlimit:4;stroke-dasharray:none;stroke-opacity:1;paint-order:fill markers stroke"
       d="m 42.075518,139.17887 v 2.66811 h -2.668121 v 1.37696 h 2.668121 v 2.66812 h 1.376941 v -2.66812 h 2.668121 v -1.37696 h -2.668121 v -2.66811 z" />
    <path
       id="path56044"
       style="opacity:0.6;fill:#000000;stroke:none;stroke-width:0.233834;stroke-miterlimit:4;stroke-dasharray:none;stroke-opacity:1;paint-order:fill markers stroke"
       d="m 56.560257,139.17887 v 2.66811 H 53.89212 v 1.37696 h 2.668137 v 2.66812 h 1.376927 v -2.66812 h 2.668135 v -1.37696 h -2.668135 v -2.66811 z" />
    <path
       id="path56046"
       style="opacity:0.6;fill:#000000;stroke:none;stroke-width:0.233834;stroke-miterlimit:4;stroke-dasharray:none;stroke-opacity:1;paint-order:fill markers stroke"
       d="m 49.317887,153.66364 v 2.66813 h -2.668128 v 1.37693 h 2.668128 v 2.66817 h 1.376934 v -2.66817 h 2.668128 v -1.37693 h -2.668128 v -2.66813 z" />
    <path
       id="path56048"
       style="opacity:0.6;fill:#000000;stroke:none;stroke-width:0.233834;stroke-miterlimit:4;stroke-dasharray:none;stroke-opacity:1;paint-order:fill markers stroke"
       d="m 71.044983,153.66364 v 2.66813 h -2.668127 v 1.37693 h 2.668127 v 2.66817 h 1.376935 v -2.66817 h 2.668127 v -1.37693 h -2.668127 v -2.66813 z" />
    <path
       id="path56050"
       style="opacity:0.6;fill:#000000;stroke:none;stroke-width:0.233834;stroke-miterlimit:4;stroke-dasharray:none;stroke-opacity:1;paint-order:fill markers stroke"
       d="m 85.529717,153.66364 v 2.66813 h -2.668131 v 1.37693 h 2.668131 v 2.66817 h 1.376931 v -2.66817 h 2.668131 v -1.37693 h -2.668131 v -2.66813 z" />
    <path
       id="path56052"
       style="opacity:0.6;fill:#000000;stroke:none;stroke-width:0.233834;stroke-miterlimit:4;stroke-dasharray:none;stroke-opacity:1;paint-order:fill markers stroke"
       d="m 100.01445,153.66364 v 2.66813 h -2.66813 v 1.37693 h 2.66813 v 2.66817 h 1.37693 v -2.66817 h 2.66813 v -1.37693 h -2.66813 v -2.66813 z" />
    <path
       id="path56054"
       style="opacity:0.6;fill:#000000;stroke:none;stroke-width:0.233834;stroke-miterlimit:4;stroke-dasharray:none;stroke-opacity:1;paint-order:fill markers stroke"
       d="m 92.772079,146.42125 v 2.66813 h -2.668124 v 1.37693 h 2.668124 v 2.66817 h 1.376939 v -2.66817 h 2.668123 v -1.37693 h -2.668123 v -2.66813 z" />
    <path
       id="path56056"
       style="opacity:0.6;fill:#000000;stroke:none;stroke-width:0.233834;stroke-miterlimit:4;stroke-dasharray:none;stroke-opacity:1;paint-order:fill markers stroke"
       d="m 100.01445,146.42125 v 2.66813 h -2.668135 v 1.37693 h 2.668135 v 2.66817 h 1.37693 v -2.66817 h 2.66813 v -1.37693 h -2.66813 v -2.66813 z" />
    <path
       id="path56058"
       style="opacity:0.6;fill:#000000;stroke:none;stroke-width:0.233834;stroke-miterlimit:4;stroke-dasharray:none;stroke-opacity:1;paint-order:fill markers stroke"
       d="m 34.833154,153.66364 v 2.66813 h -2.668125 v 1.37693 h 2.668125 v 2.66817 h 1.376933 v -2.66817 h 2.668129 v -1.37693 h -2.668129 v -2.66813 z" />
    <path
       id="path56060"
       style="opacity:0.6;fill:#000000;stroke:none;stroke-width:0.233834;stroke-miterlimit:4;stroke-dasharray:none;stroke-opacity:1;paint-order:fill markers stroke"
       d="m 42.075521,153.66364 v 2.66813 h -2.668127 v 1.37693 h 2.668127 v 2.66817 h 1.376935 v -2.66817 h 2.668127 v -1.37693 h -2.668127 v -2.66813 z" />
    <path
       id="path56062"
       style="opacity:0.6;fill:#000000;stroke:none;stroke-width:0.233834;stroke-miterlimit:4;stroke-dasharray:none;stroke-opacity:1;paint-order:fill markers stroke"
       d="m 78.287346,146.42125 v 2.66813 h -2.668121 v 1.37693 h 2.668121 v 2.66817 h 1.376941 v -2.66817 h 2.668121 v -1.37693 h -2.668121 v -2.66813 z" />
    <path
       id="path56064"
       style="opacity:0.6;fill:#000000;stroke:none;stroke-width:0.233834;stroke-miterlimit:4;stroke-dasharray:none;stroke-opacity:1;paint-order:fill markers stroke"
       d="m 85.52972,146.42125 v 2.66813 h -2.668137 v 1.37693 h 2.668137 v 2.66817 h 1.376927 v -2.66817 h 2.668135 v -1.37693 h -2.668135 v -2.66813 z" />
    <path
       id="path56066"
       style="opacity:0.6;fill:#000000;stroke:none;stroke-width:0.233834;stroke-miterlimit:4;stroke-dasharray:none;stroke-opacity:1;paint-order:fill markers stroke"
       d="m 78.28735,160.90606 v 2.66809 h -2.668128 v 1.37693 h 2.668128 v 2.66817 h 1.376934 v -2.66817 h 2.668128 v -1.37693 h -2.668128 v -2.66809 z" />
    <path
       id="path56068"
       style="opacity:0.6;fill:#000000;stroke:none;stroke-width:0.233834;stroke-miterlimit:4;stroke-dasharray:none;stroke-opacity:1;paint-order:fill markers stroke"
       d="m 85.529715,160.90606 v 2.66809 h -2.668127 v 1.37693 h 2.668127 v 2.66817 h 1.376935 v -2.66817 h 2.668127 v -1.37693 H 86.90665 v -2.66809 z" />
    <path
       id="path56070"
       style="opacity:0.6;fill:#000000;stroke:none;stroke-width:0.233834;stroke-miterlimit:4;stroke-dasharray:none;stroke-opacity:1;paint-order:fill markers stroke"
       d="m 92.772082,160.90606 v 2.66809 h -2.668131 v 1.37693 h 2.668131 v 2.66817 h 1.376931 v -2.66817 h 2.668131 v -1.37693 h -2.668131 v -2.66809 z" />
    <path
       id="path56072"
       style="opacity:0.6;fill:#000000;stroke:none;stroke-width:0.233834;stroke-miterlimit:4;stroke-dasharray:none;stroke-opacity:1;paint-order:fill markers stroke"
       d="m 100.01445,160.90606 v 2.66809 h -2.66813 v 1.37693 h 2.66813 v 2.66817 h 1.37693 v -2.66817 h 2.66813 v -1.37693 h -2.66813 v -2.66809 z" />
    <path
       id="path56074"
       style="opacity:0.6;fill:#000000;stroke:none;stroke-width:0.233834;stroke-miterlimit:4;stroke-dasharray:none;stroke-opacity:1;paint-order:fill markers stroke"
       d="m 49.317885,160.90606 v 2.66809 h -2.668124 v 1.37693 h 2.668124 v 2.66817 h 1.376938 v -2.66817 h 2.668124 v -1.37693 h -2.668124 v -2.66809 z" />
    <path
       id="path56076"
       style="opacity:0.6;fill:#000000;stroke:none;stroke-width:0.233834;stroke-miterlimit:4;stroke-dasharray:none;stroke-opacity:1;paint-order:fill markers stroke"
       d="m 56.560256,160.90606 v 2.66809 h -2.668135 v 1.37693 h 2.668135 v 2.66817 h 1.376927 v -2.66817 h 2.668135 v -1.37693 h -2.668135 v -2.66809 z" />
    <path
       id="path56078"
       style="opacity:0.6;fill:#000000;stroke:none;stroke-width:0.233834;stroke-miterlimit:4;stroke-dasharray:none;stroke-opacity:1;paint-order:fill markers stroke"
       d="m 63.802617,160.90606 v 2.66809 h -2.668125 v 1.37693 h 2.668125 v 2.66817 h 1.376933 v -2.66817 h 2.668129 v -1.37693 H 65.17955 v -2.66809 z" />
    <path
       id="path56080"
       style="opacity:0.6;fill:#000000;stroke:none;stroke-width:0.233834;stroke-miterlimit:4;stroke-dasharray:none;stroke-opacity:1;paint-order:fill markers stroke"
       d="m 71.044983,160.90606 v 2.66809 h -2.668127 v 1.37693 h 2.668127 v 2.66817 h 1.376935 v -2.66817 h 2.668127 v -1.37693 h -2.668127 v -2.66809 z" />
    <path
       id="path56082"
       style="opacity:0.6;fill:#000000;stroke:none;stroke-width:0.233834;stroke-miterlimit:4;stroke-dasharray:none;stroke-opacity:1;paint-order:fill markers stroke"
       d="m 34.833152,160.90606 v 2.66809 h -2.668121 v 1.37693 h 2.668121 v 2.66817 h 1.376941 v -2.66817 h 2.668121 v -1.37693 h -2.668121 v -2.66809 z" />
    <path
       id="path56084"
       style="opacity:0.6;fill:#000000;stroke:none;stroke-width:0.233834;stroke-miterlimit:4;stroke-dasharray:none;stroke-opacity:1;paint-order:fill markers stroke"
       d="m 42.075526,160.90606 v 2.66809 h -2.668137 v 1.37693 h 2.668137 v 2.66817 h 1.376927 v -2.66817 h 2.668135 v -1.37693 h -2.668135 v -2.66809 z" />
    <text
       xml:space="preserve"
       style="font-style:normal;font-weight:normal;font-size:4.68482px;line-height:1.25;font-family:sans-serif;fill:#000000;fill-opacity:1;stroke:none;stroke-width:0.117121"
       x="45.853657"
       y="173.72279"
       id="text6308"><tspan
         sodipodi:role="line"
         id="tspan6306"
         style="stroke-width:0.117121"
         x="45.853657"
         y="173.72279">10x4 odstęp 2px</tspan></text>
  </g>
</svg>
