<?xml version="1.0" encoding="UTF-8" standalone="no"?>
<svg
   xmlns:dc="http://purl.org/dc/elements/1.1/"
   xmlns:cc="http://creativecommons.org/ns#"
   xmlns:rdf="http://www.w3.org/1999/02/22-rdf-syntax-ns#"
   xmlns:svg="http://www.w3.org/2000/svg"
   xmlns="http://www.w3.org/2000/svg"
   xmlns:sodipodi="http://sodipodi.sourceforge.net/DTD/sodipodi-0.dtd"
   xmlns:inkscape="http://www.inkscape.org/namespaces/inkscape"
   width="70mm"
   height="50mm"
   viewBox="0 0 70 50.000001"
   version="1.1"
   id="svg237"
   sodipodi:docname="8.svg"
   inkscape:version="1.0.1 (3bc2e813f5, 2020-09-07)"
   inkscape:export-filename="C:\Users\stanley\OneDrive - Szkola Glowna Sluzby Pozarniczej\SGSP\inkscape_zadania\svg\k2_rozmieszczanie\3.png"
   inkscape:export-xdpi="300"
   inkscape:export-ydpi="300">
  <defs
     id="defs231" />
  <sodipodi:namedview
     id="base"
     pagecolor="#ffffff"
     bordercolor="#666666"
     borderopacity="1.0"
     inkscape:pageopacity="0.0"
     inkscape:pageshadow="2"
     inkscape:zoom="1.4"
     inkscape:cx="52.14286"
     inkscape:cy="64.285714"
     inkscape:document-units="mm"
     inkscape:current-layer="layer1"
     showgrid="false"
     fit-margin-top="0"
     fit-margin-left="0"
     fit-margin-right="0"
     fit-margin-bottom="0"
     inkscape:window-width="1920"
     inkscape:window-height="1009"
     inkscape:window-x="-8"
     inkscape:window-y="-8"
     inkscape:window-maximized="1"
     inkscape:pagecheckerboard="0"
     inkscape:document-rotation="0" />
  <metadata
     id="metadata234">
    <rdf:RDF>
      <cc:Work
         rdf:about="">
        <dc:format>image/svg+xml</dc:format>
        <dc:type
           rdf:resource="http://purl.org/dc/dcmitype/StillImage" />
      </cc:Work>
    </rdf:RDF>
  </metadata>
  <g
     inkscape:label="Layer 1"
     inkscape:groupmode="layer"
     id="layer1"
     transform="translate(-30.730976,-127.60526)">
    <rect
       style="fill:#ffffff;stroke:#ffffff;stroke-width:1;stroke-linecap:round;stop-color:#000000"
       id="rect48"
       width="87.690468"
       height="66.712799"
       x="26.006273"
       y="124.95943" />
    <path
       inkscape:connector-curvature="0"
       d="m 33.539659,142.55205 -1.319403,1.31941 2.031674,2.03167 -2.031674,2.03166 1.319403,1.31941 2.031663,-2.03168 2.031674,2.03168 1.319393,-1.31941 -2.031664,-2.03166 2.031664,-2.03167 -1.319393,-1.31941 -2.031674,2.03168 z"
       style="display:inline;opacity:0.6;fill:#000000;stroke:none;stroke-width:0.78977102;stroke-miterlimit:4;stroke-dasharray:none;stroke-opacity:1;paint-order:markers stroke fill"
       id="rect15370" />
    <path
       inkscape:connector-curvature="0"
       d="m 40.241802,142.55205 -1.319403,1.31941 2.031674,2.03167 -2.031674,2.03166 1.319403,1.31941 2.031663,-2.03168 2.031674,2.03168 1.319403,-1.31941 -2.031674,-2.03166 2.031674,-2.03167 -1.319403,-1.31941 -2.031674,2.03168 z"
       style="display:inline;opacity:0.6;fill:#000000;stroke:none;stroke-width:0.78977102;stroke-miterlimit:4;stroke-dasharray:none;stroke-opacity:1;paint-order:markers stroke fill"
       id="path15477" />
    <path
       inkscape:connector-curvature="0"
       d="m 46.943945,142.55205 -1.319403,1.31941 2.031674,2.03167 -2.031674,2.03166 1.319403,1.31941 2.031663,-2.03168 2.031674,2.03168 1.319403,-1.31941 -2.031674,-2.03166 2.031674,-2.03167 -1.319403,-1.31941 -2.031674,2.03168 z"
       style="display:inline;opacity:0.6;fill:#000000;stroke:none;stroke-width:0.78977102;stroke-miterlimit:4;stroke-dasharray:none;stroke-opacity:1;paint-order:markers stroke fill"
       id="path15479" />
    <path
       inkscape:connector-curvature="0"
       d="m 53.646088,142.55205 -1.319403,1.31941 2.031674,2.03167 -2.031674,2.03166 1.319403,1.31941 2.031663,-2.03168 2.031674,2.03168 1.319403,-1.31941 -2.031674,-2.03166 2.031674,-2.03167 -1.319403,-1.31941 -2.031674,2.03168 z"
       style="display:inline;opacity:0.6;fill:#000000;stroke:none;stroke-width:0.78977102;stroke-miterlimit:4;stroke-dasharray:none;stroke-opacity:1;paint-order:markers stroke fill"
       id="path15481" />
    <path
       inkscape:connector-curvature="0"
       d="m 67.050384,142.55205 -1.319403,1.31941 2.031674,2.03167 -2.031674,2.03166 1.319403,1.31941 2.031664,-2.03168 2.031673,2.03168 1.319403,-1.31941 -2.031673,-2.03166 2.031673,-2.03167 -1.319403,-1.31941 -2.031673,2.03168 z"
       style="display:inline;opacity:0.6;fill:#000000;stroke:none;stroke-width:0.78977102;stroke-miterlimit:4;stroke-dasharray:none;stroke-opacity:1;paint-order:markers stroke fill"
       id="path15483" />
    <path
       inkscape:connector-curvature="0"
       d="m 80.45467,142.55206 -1.319403,1.3194 2.031674,2.03167 -2.031674,2.03166 1.319403,1.31941 2.031674,-2.03167 2.031663,2.03167 1.319403,-1.31941 -2.031673,-2.03166 2.031673,-2.03167 -1.319403,-1.3194 -2.031663,2.03167 z"
       style="display:inline;opacity:0.6;fill:#000000;stroke:none;stroke-width:0.78977102;stroke-miterlimit:4;stroke-dasharray:none;stroke-opacity:1;paint-order:markers stroke fill"
       id="path15567" />
    <path
       inkscape:connector-curvature="0"
       d="m 93.858966,142.55205 -1.319402,1.31941 2.031673,2.03167 -2.031673,2.03166 1.319402,1.31941 2.031664,-2.03168 2.031674,2.03168 1.319403,-1.31941 -2.031674,-2.03166 2.031674,-2.03167 -1.319403,-1.31941 -2.031674,2.03168 z"
       style="display:inline;opacity:0.6;fill:#000000;stroke:none;stroke-width:0.78977102;stroke-miterlimit:4;stroke-dasharray:none;stroke-opacity:1;paint-order:markers stroke fill"
       id="path15569" />
    <path
       inkscape:connector-curvature="0"
       d="m 40.241802,149.2542 -1.319403,1.3194 2.031674,2.03167 -2.031674,2.03167 1.319403,1.3194 2.031663,-2.03167 2.031674,2.03167 1.319403,-1.3194 -2.031674,-2.03167 2.031674,-2.03167 -1.319403,-1.3194 -2.031674,2.03167 z"
       style="display:inline;opacity:0.6;fill:#000000;stroke:none;stroke-width:0.78977102;stroke-miterlimit:4;stroke-dasharray:none;stroke-opacity:1;paint-order:markers stroke fill"
       id="path15571" />
    <path
       inkscape:connector-curvature="0"
       d="m 60.348241,149.2542 -1.319403,1.3194 2.031674,2.03167 -2.031674,2.03167 1.319403,1.3194 2.031653,-2.03167 2.031674,2.03167 1.319403,-1.3194 -2.031674,-2.03167 2.031674,-2.03167 -1.319403,-1.3194 -2.031674,2.03167 z"
       style="display:inline;opacity:0.6;fill:#000000;stroke:none;stroke-width:0.78977102;stroke-miterlimit:4;stroke-dasharray:none;stroke-opacity:1;paint-order:markers stroke fill"
       id="path15573" />
    <path
       inkscape:connector-curvature="0"
       d="m 46.943945,149.2542 -1.319403,1.3194 2.031674,2.03167 -2.031674,2.03167 1.319403,1.3194 2.031663,-2.03167 2.031674,2.03167 1.319403,-1.3194 -2.031674,-2.03167 2.031674,-2.03167 -1.319403,-1.3194 -2.031674,2.03167 z"
       style="display:inline;opacity:0.6;fill:#000000;stroke:none;stroke-width:0.78977102;stroke-miterlimit:4;stroke-dasharray:none;stroke-opacity:1;paint-order:markers stroke fill"
       id="path15575" />
    <path
       inkscape:connector-curvature="0"
       d="m 80.45468,149.2542 -1.319403,1.3194 2.031664,2.03167 -2.031664,2.03167 1.319403,1.3194 2.031664,-2.03167 2.031663,2.03167 1.319403,-1.3194 -2.031663,-2.03167 2.031663,-2.03167 -1.319403,-1.3194 -2.031663,2.03167 z"
       style="display:inline;opacity:0.6;fill:#000000;stroke:none;stroke-width:0.78977102;stroke-miterlimit:4;stroke-dasharray:none;stroke-opacity:1;paint-order:markers stroke fill"
       id="path15577" />
    <path
       inkscape:connector-curvature="0"
       d="m 33.539659,155.95634 -1.319403,1.3194 2.031663,2.03168 -2.031663,2.03166 1.319403,1.3194 2.031653,-2.03167 2.031684,2.03167 1.319393,-1.3194 -2.031664,-2.03166 2.031664,-2.03168 -1.319393,-1.3194 -2.031684,2.03167 z"
       style="display:inline;opacity:0.6;fill:#000000;stroke:none;stroke-width:0.78977102;stroke-miterlimit:4;stroke-dasharray:none;stroke-opacity:1;paint-order:markers stroke fill"
       id="path15579" />
    <path
       inkscape:connector-curvature="0"
       d="m 93.858966,149.2542 -1.319402,1.3194 2.031673,2.03167 -2.031673,2.03167 1.319402,1.3194 2.031664,-2.03167 2.031674,2.03167 1.319403,-1.3194 -2.031674,-2.03167 2.031674,-2.03167 -1.319403,-1.3194 -2.031674,2.03167 z"
       style="display:inline;opacity:0.6;fill:#000000;stroke:none;stroke-width:0.78977102;stroke-miterlimit:4;stroke-dasharray:none;stroke-opacity:1;paint-order:markers stroke fill"
       id="path15581" />
    <path
       inkscape:connector-curvature="0"
       d="m 53.646088,155.95634 -1.319403,1.3194 2.031674,2.03168 -2.031674,2.03166 1.319403,1.3194 2.031663,-2.03167 2.031674,2.03167 1.319403,-1.3194 -2.031674,-2.03166 2.031674,-2.03168 -1.319403,-1.3194 -2.031674,2.03167 z"
       style="display:inline;opacity:0.6;fill:#000000;stroke:none;stroke-width:0.78977102;stroke-miterlimit:4;stroke-dasharray:none;stroke-opacity:1;paint-order:markers stroke fill"
       id="path15583" />
    <path
       inkscape:connector-curvature="0"
       d="m 60.348241,142.55205 -1.319403,1.31941 2.031674,2.03167 -2.031674,2.03166 1.319403,1.31941 2.031653,-2.03168 2.031674,2.03168 1.319403,-1.31941 -2.031674,-2.03166 2.031674,-2.03167 -1.319403,-1.31941 -2.031674,2.03168 z"
       style="display:inline;opacity:0.6;fill:#000000;stroke:none;stroke-width:0.78977102;stroke-miterlimit:4;stroke-dasharray:none;stroke-opacity:1;paint-order:markers stroke fill"
       id="path15585" />
    <path
       inkscape:connector-curvature="0"
       d="m 73.752527,142.55206 -1.319403,1.3194 2.031674,2.03167 -2.031674,2.03166 1.319403,1.31941 2.031674,-2.03167 2.031663,2.03167 1.319403,-1.31941 -2.031673,-2.03166 2.031673,-2.03167 -1.319403,-1.3194 -2.031663,2.03167 z"
       style="display:inline;opacity:0.6;fill:#000000;stroke:none;stroke-width:0.78977102;stroke-miterlimit:4;stroke-dasharray:none;stroke-opacity:1;paint-order:markers stroke fill"
       id="path15587" />
    <path
       inkscape:connector-curvature="0"
       d="m 87.156813,142.55205 -1.319403,1.31941 2.031674,2.03167 -2.031674,2.03166 1.319403,1.31941 2.031664,-2.03168 2.031674,2.03168 1.319402,-1.31941 -2.031673,-2.03166 2.031673,-2.03167 -1.319402,-1.31941 -2.031674,2.03168 z"
       style="display:inline;opacity:0.6;fill:#000000;stroke:none;stroke-width:0.78977102;stroke-miterlimit:4;stroke-dasharray:none;stroke-opacity:1;paint-order:markers stroke fill"
       id="path15589" />
    <path
       inkscape:connector-curvature="0"
       d="m 33.539659,149.2542 -1.319403,1.3194 2.031674,2.03167 -2.031674,2.03167 1.319403,1.3194 2.031653,-2.03167 2.031684,2.03167 1.319393,-1.3194 -2.031664,-2.03167 2.031664,-2.03167 -1.319393,-1.3194 -2.031684,2.03167 z"
       style="display:inline;opacity:0.6;fill:#000000;stroke:none;stroke-width:0.78977102;stroke-miterlimit:4;stroke-dasharray:none;stroke-opacity:1;paint-order:markers stroke fill"
       id="path15591" />
    <path
       inkscape:connector-curvature="0"
       d="m 53.646088,149.2542 -1.319403,1.3194 2.031674,2.03167 -2.031674,2.03167 1.319403,1.3194 2.031663,-2.03167 2.031674,2.03167 1.319403,-1.3194 -2.031674,-2.03167 2.031674,-2.03167 -1.319403,-1.3194 -2.031674,2.03167 z"
       style="display:inline;opacity:0.6;fill:#000000;stroke:none;stroke-width:0.78977102;stroke-miterlimit:4;stroke-dasharray:none;stroke-opacity:1;paint-order:markers stroke fill"
       id="path15593" />
    <path
       inkscape:connector-curvature="0"
       d="m 73.752527,149.2542 -1.319403,1.3194 2.031674,2.03167 -2.031674,2.03167 1.319403,1.3194 2.031664,-2.03167 2.031673,2.03167 1.319403,-1.3194 -2.031673,-2.03167 2.031673,-2.03167 -1.319403,-1.3194 -2.031673,2.03167 z"
       style="display:inline;opacity:0.6;fill:#000000;stroke:none;stroke-width:0.78977102;stroke-miterlimit:4;stroke-dasharray:none;stroke-opacity:1;paint-order:markers stroke fill"
       id="path15595" />
    <path
       inkscape:connector-curvature="0"
       d="m 67.050384,149.2542 -1.319403,1.3194 2.031674,2.03167 -2.031674,2.03167 1.319403,1.3194 2.031674,-2.03167 2.031663,2.03167 1.319403,-1.3194 -2.031663,-2.03167 2.031663,-2.03167 -1.319403,-1.3194 -2.031663,2.03167 z"
       style="display:inline;opacity:0.6;fill:#000000;stroke:none;stroke-width:0.78977102;stroke-miterlimit:4;stroke-dasharray:none;stroke-opacity:1;paint-order:markers stroke fill"
       id="path15597" />
    <path
       inkscape:connector-curvature="0"
       d="m 87.156813,149.2542 -1.319403,1.3194 2.031674,2.03167 -2.031674,2.03167 1.319403,1.3194 2.031674,-2.03167 2.031674,2.03167 1.319403,-1.3194 -2.031674,-2.03167 2.031674,-2.03167 -1.319403,-1.3194 -2.031674,2.03167 z"
       style="display:inline;opacity:0.6;fill:#000000;stroke:none;stroke-width:0.78977102;stroke-miterlimit:4;stroke-dasharray:none;stroke-opacity:1;paint-order:markers stroke fill"
       id="path15599" />
    <path
       inkscape:connector-curvature="0"
       d="m 46.943945,155.95634 -1.319403,1.3194 2.031674,2.03168 -2.031674,2.03166 1.319403,1.3194 2.031663,-2.03167 2.031674,2.03167 1.319403,-1.3194 -2.031674,-2.03166 2.031674,-2.03168 -1.319403,-1.3194 -2.031674,2.03167 z"
       style="display:inline;opacity:0.6;fill:#000000;stroke:none;stroke-width:0.78977102;stroke-miterlimit:4;stroke-dasharray:none;stroke-opacity:1;paint-order:markers stroke fill"
       id="path15601" />
    <path
       inkscape:connector-curvature="0"
       d="m 40.241802,155.95634 -1.319403,1.3194 2.031674,2.03168 -2.031674,2.03166 1.319403,1.3194 2.031663,-2.03167 2.031674,2.03167 1.319403,-1.3194 -2.031674,-2.03166 2.031674,-2.03168 -1.319403,-1.3194 -2.031674,2.03167 z"
       style="display:inline;opacity:0.6;fill:#000000;stroke:none;stroke-width:0.78977102;stroke-miterlimit:4;stroke-dasharray:none;stroke-opacity:1;paint-order:markers stroke fill"
       id="path15603" />
    <path
       inkscape:connector-curvature="0"
       d="m 60.348241,155.95634 -1.319403,1.3194 2.031674,2.03168 -2.031674,2.03166 1.319403,1.3194 2.031664,-2.03167 2.031673,2.03167 1.319403,-1.3194 -2.031674,-2.03166 2.031674,-2.03168 -1.319403,-1.3194 -2.031673,2.03167 z"
       style="display:inline;opacity:0.6;fill:#000000;stroke:none;stroke-width:0.78977102;stroke-miterlimit:4;stroke-dasharray:none;stroke-opacity:1;paint-order:markers stroke fill"
       id="path15605" />
    <path
       inkscape:connector-curvature="0"
       d="m 67.050384,155.95635 -1.319403,1.31939 2.031674,2.03168 -2.031674,2.03166 1.319403,1.3194 2.031674,-2.03166 2.031663,2.03166 1.319403,-1.3194 -2.031673,-2.03166 2.031673,-2.03168 -1.319403,-1.31939 -2.031663,2.03166 z"
       style="display:inline;opacity:0.6;fill:#000000;stroke:none;stroke-width:0.78977102;stroke-miterlimit:4;stroke-dasharray:none;stroke-opacity:1;paint-order:markers stroke fill"
       id="path15607" />
    <path
       inkscape:connector-curvature="0"
       d="m 73.752527,155.95634 -1.319403,1.3194 2.031674,2.03168 -2.031674,2.03166 1.319403,1.3194 2.031664,-2.03167 2.031673,2.03167 1.319403,-1.3194 -2.031673,-2.03166 2.031673,-2.03168 -1.319403,-1.3194 -2.031673,2.03167 z"
       style="display:inline;opacity:0.6;fill:#000000;stroke:none;stroke-width:0.78977102;stroke-miterlimit:4;stroke-dasharray:none;stroke-opacity:1;paint-order:markers stroke fill"
       id="path15609" />
    <path
       inkscape:connector-curvature="0"
       d="m 80.45467,155.95634 -1.319403,1.3194 2.031674,2.03168 -2.031674,2.03166 1.319403,1.3194 2.031664,-2.03167 2.031673,2.03167 1.319403,-1.3194 -2.031673,-2.03166 2.031673,-2.03168 -1.319403,-1.3194 -2.031673,2.03167 z"
       style="display:inline;opacity:0.6;fill:#000000;stroke:none;stroke-width:0.78977102;stroke-miterlimit:4;stroke-dasharray:none;stroke-opacity:1;paint-order:markers stroke fill"
       id="path15611" />
    <path
       inkscape:connector-curvature="0"
       d="m 87.156823,155.95634 -1.319402,1.3194 2.031673,2.03168 -2.031673,2.03166 1.319402,1.3194 2.031654,-2.03167 2.031674,2.03167 1.319402,-1.3194 -2.031673,-2.03166 2.031673,-2.03168 -1.319402,-1.3194 -2.031674,2.03167 z"
       style="display:inline;opacity:0.6;fill:#000000;stroke:none;stroke-width:0.78977102;stroke-miterlimit:4;stroke-dasharray:none;stroke-opacity:1;paint-order:markers stroke fill"
       id="path15613" />
    <path
       inkscape:connector-curvature="0"
       d="m 93.858966,155.95634 -1.319402,1.3194 2.031673,2.03168 -2.031673,2.03166 1.319402,1.3194 2.031664,-2.03167 2.031674,2.03167 1.319403,-1.3194 -2.031674,-2.03166 2.031674,-2.03168 -1.319403,-1.3194 -2.031674,2.03167 z"
       style="display:inline;opacity:0.6;fill:#000000;stroke:none;stroke-width:0.78977102;stroke-miterlimit:4;stroke-dasharray:none;stroke-opacity:1;paint-order:markers stroke fill"
       id="path15615" />
    <path
       id="path873"
       style="display:inline;opacity:1;fill:#ffffff;stroke:none;stroke-width:0.78977102;stroke-miterlimit:4;stroke-dasharray:none;stroke-opacity:1;paint-order:markers stroke fill"
       d="m 47.699897,167.29563 -1.319403,1.3194 2.031674,2.03168 -2.031674,2.03166 1.319403,1.3194 2.031663,-2.03167 2.031674,2.03167 1.319403,-1.3194 -2.031674,-2.03166 2.031674,-2.03168 -1.319403,-1.3194 -2.031674,2.03167 z"
       inkscape:connector-curvature="0" />
    <path
       id="path875"
       style="display:inline;opacity:1;fill:#ffffff;stroke:none;stroke-width:0.78977102;stroke-miterlimit:4;stroke-dasharray:none;stroke-opacity:1;paint-order:markers stroke fill"
       d="m 87.345811,167.29563 -1.319402,1.3194 2.031673,2.03168 -2.031673,2.03166 1.319402,1.3194 2.031654,-2.03167 2.031674,2.03167 1.319402,-1.3194 -2.031673,-2.03166 2.031673,-2.03168 -1.319402,-1.3194 -2.031674,2.03167 z"
       inkscape:connector-curvature="0" />
    <text
       xml:space="preserve"
       style="font-style:normal;font-weight:normal;font-size:4.68482px;line-height:1.25;font-family:sans-serif;fill:#000000;fill-opacity:1;stroke:none;stroke-width:0.117121"
       x="60.010864"
       y="173.53381"
       id="text6308"><tspan
         sodipodi:role="line"
         id="tspan6306"
         style="stroke-width:0.117121"
         x="60.010864"
         y="173.53381">10x3</tspan></text>
  </g>
</svg>
